####
#
# OBJ File Generated by Meshlab
#
####
# Object button.obj
#
# Vertices: 145
# Faces: 264
#
####
mtllib ./button.obj.mtl

vn 2.839142 -0.042534 -0.894954
v 0.004823 0.003408 0.018701 0.752941 0.752941 0.752941
vn 2.510947 -0.075946 -1.597975
v 0.004324 0.003351 0.017498 0.752941 0.752941 0.752941
vn 2.011071 -0.103958 -2.192749
v 0.003531 0.003302 0.016465 0.752941 0.752941 0.752941
vn 1.373345 -0.124674 -2.638494
v 0.002497 0.003264 0.015672 0.752941 0.752941 0.752941
vn 0.643486 -0.137063 -2.903679
v 0.001292 0.003241 0.015174 0.752941 0.752941 0.752941
vn -0.130596 -0.140241 -2.970999
v 0.000000 0.003233 0.015004 0.752941 0.752941 0.752941
vn -0.895183 -0.133885 -2.836360
v -0.001292 0.003241 0.015174 0.752941 0.752941 0.752941
vn -1.599811 -0.118640 -2.507947
v -0.002497 0.003264 0.015672 0.752941 0.752941 0.752941
vn -2.195865 -0.095310 -2.008096
v -0.003531 0.003302 0.016465 0.752941 0.752941 0.752941
vn -2.641235 -0.065231 -1.372505
v -0.004324 0.003351 0.017498 0.752941 0.752941 0.752941
vn -2.906761 -0.030554 -0.642873
v -0.004823 0.003408 0.018701 0.752941 0.752941 0.752941
vn -2.974380 0.006191 0.130263
v -0.004993 0.003469 0.019992 0.752941 0.752941 0.752941
vn -2.839029 0.042424 0.895231
v -0.004823 0.003530 0.021283 0.752941 0.752941 0.752941
vn -2.510892 0.075499 1.598131
v -0.004324 0.003587 0.022485 0.752941 0.752941 0.752941
vn -2.011554 0.103488 2.192400
v -0.003531 0.003636 0.023518 0.752941 0.752941 0.752941
vn -1.373584 0.124537 2.638316
v -0.002497 0.003674 0.024311 0.752941 0.752941 0.752941
vn -0.643486 0.137064 2.903680
v -0.001292 0.003697 0.024809 0.752941 0.752941 0.752941
vn 0.130597 0.140242 2.970999
v -0.000000 0.003705 0.024979 0.752941 0.752941 0.752941
vn 0.895181 0.133886 2.836360
v 0.001292 0.003697 0.024809 0.752941 0.752941 0.752941
vn 1.600292 0.118366 2.507590
v 0.002497 0.003674 0.024311 0.752941 0.752941 0.752941
vn 2.196107 0.094781 2.007935
v 0.003531 0.003636 0.023518 0.752941 0.752941 0.752941
vn 2.641123 0.064924 1.372791
v 0.004324 0.003587 0.022485 0.752941 0.752941 0.752941
vn 2.906705 0.030498 0.643011
v 0.004823 0.003530 0.021283 0.752941 0.752941 0.752941
vn 2.974380 -0.006191 -0.130264
v 0.004993 0.003469 0.019992 0.752941 0.752941 0.752941
vn 0.196400 2.987698 -0.185879
v 0.002411 0.007580 0.019150 0.752941 0.752941 0.752941
vn 0.178653 2.985391 -0.234217
v 0.002162 0.007552 0.018549 0.752941 0.752941 0.752941
vn 0.148608 2.983308 -0.277974
v 0.001765 0.007527 0.018032 0.752941 0.752941 0.752941
vn 0.109485 2.981760 -0.310585
v 0.001248 0.007509 0.017636 0.752941 0.752941 0.752941
vn 0.060349 2.980665 -0.333724
v 0.000646 0.007497 0.017387 0.752941 0.752941 0.752941
vn 0.008600 2.980221 -0.342985
v 0.000000 0.007493 0.017302 0.752941 0.752941 0.752941
vn -0.043074 2.980443 -0.338355
v -0.000646 0.007497 0.017387 0.752941 0.752941 0.752941
vn -0.093554 2.981324 -0.319839
v -0.001248 0.007509 0.017636 0.752941 0.752941 0.752941
vn -0.137011 2.982752 -0.289652
v -0.001765 0.007527 0.018032 0.752941 0.752941 0.752941
vn -0.169433 2.984624 -0.250298
v -0.002162 0.007552 0.018549 0.752941 0.752941 0.752941
vn -0.192175 2.986920 -0.202076
v -0.002412 0.007580 0.019150 0.752941 0.752941 0.752941
vn -0.201112 2.989315 -0.151330
v -0.002497 0.007611 0.019795 0.752941 0.752941 0.752941
vn -0.197327 2.991817 -0.097267
v -0.002412 0.007642 0.020441 0.752941 0.752941 0.752941
vn -0.179825 2.994133 -0.047758
v -0.002162 0.007670 0.021042 0.752941 0.752941 0.752941
vn -0.149733 2.996146 -0.005938
v -0.001765 0.007695 0.021559 0.752941 0.752941 0.752941
vn -0.108050 2.997825 0.027940
v -0.001248 0.007713 0.021955 0.752941 0.752941 0.752941
vn -0.060134 2.998881 0.049693
v -0.000646 0.007725 0.022204 0.752941 0.752941 0.752941
vn -0.008499 2.999306 0.059459
v -0.000000 0.007729 0.022289 0.752941 0.752941 0.752941
vn 0.042816 2.999093 0.054576
v 0.000646 0.007725 0.022204 0.752941 0.752941 0.752941
vn 0.092751 2.998247 0.036375
v 0.001248 0.007713 0.021955 0.752941 0.752941 0.752941
vn 0.136541 2.996775 0.006783
v 0.001765 0.007695 0.021559 0.752941 0.752941 0.752941
vn 0.171375 2.994826 -0.033209
v 0.002162 0.007670 0.021042 0.752941 0.752941 0.752941
vn 0.192801 2.992629 -0.079787
v 0.002412 0.007642 0.020441 0.752941 0.752941 0.752941
vn 0.201456 2.990159 -0.133075
v 0.002497 0.007611 0.019795 0.752941 0.752941 0.752941
vn 0.000000 0.000039 -0.000002
v -0.000000 0.007696 0.019791 0.752941 0.752941 0.752941
vn 0.933362 5.868543 -0.572899
v 0.003910 0.007457 0.018754 0.752941 0.752941 0.752941
vn 2.775412 4.964386 -1.040580
v 0.004366 0.007325 0.018638 0.752941 0.752941 0.752941
vn 4.807832 2.817319 -1.457266
v 0.004701 0.006975 0.018565 0.752941 0.752941 0.752941
vn 5.715979 0.709856 -1.300188
v 0.004823 0.006501 0.018554 0.752941 0.752941 0.752941
vn 0.824124 5.857772 -0.804445
v 0.003505 0.007411 0.017779 0.752941 0.752941 0.752941
vn 2.472066 4.931013 -1.731492
v 0.003915 0.007273 0.017549 0.752941 0.752941 0.752941
vn 4.301363 2.762202 -2.656681
v 0.004214 0.006919 0.017392 0.752941 0.752941 0.752941
vn 5.193243 0.643042 -2.735847
v 0.004324 0.006444 0.017351 0.752941 0.752941 0.752941
vn 0.661805 5.848649 -0.998205
v 0.002862 0.007371 0.016942 0.752941 0.752941 0.752941
vn 2.001942 4.902987 -2.318554
v 0.003196 0.007229 0.016614 0.752941 0.752941 0.752941
vn 3.502861 2.713538 -3.682636
v 0.003441 0.006871 0.016386 0.752941 0.752941 0.752941
vn 4.317059 0.585882 -3.985266
v 0.003531 0.006395 0.016318 0.752941 0.752941 0.752941
vn 0.452636 5.840988 -1.146828
v 0.002024 0.007341 0.016299 0.752941 0.752941 0.752941
vn 1.394026 4.883392 -2.764216
v 0.002260 0.007195 0.015896 0.752941 0.752941 0.752941
vn 2.465526 2.672732 -4.466804
v 0.002433 0.006835 0.015613 0.752941 0.752941 0.752941
vn 3.146158 0.537104 -4.967947
v 0.002497 0.006357 0.015526 0.752941 0.752941 0.752941
vn 0.211436 5.836432 -1.235935
v 0.001048 0.007322 0.015895 0.752941 0.752941 0.752941
vn 0.690867 4.870311 -3.040659
v 0.001170 0.007173 0.015445 0.752941 0.752941 0.752941
vn 1.257635 2.649128 -4.956007
v 0.001260 0.006812 0.015127 0.752941 0.752941 0.752941
vn 1.761232 0.502385 -5.614382
v 0.001292 0.006334 0.015028 0.752941 0.752941 0.752941
vn -0.042755 5.835368 -1.258196
v 0.000000 0.007315 0.015757 0.752941 0.752941 0.752941
vn -0.058357 4.866247 -3.123937
v 0.000000 0.007166 0.015291 0.752941 0.752941 0.752941
vn -0.033441 2.641367 -5.117330
v 0.000000 0.006804 0.014962 0.752941 0.752941 0.752941
vn 0.256550 0.490030 -5.879603
v 0.000000 0.006326 0.014858 0.752941 0.752941 0.752941
vn -0.294607 5.837496 -1.213674
v -0.001048 0.007322 0.015895 0.752941 0.752941 0.752941
vn -0.804042 4.871850 -3.010274
v -0.001170 0.007173 0.015445 0.752941 0.752941 0.752941
vn -1.322659 2.649747 -4.938732
v -0.001260 0.006812 0.015127 0.752941 0.752941 0.752941
vn -1.265441 0.496207 -5.746993
v -0.001292 0.006334 0.015028 0.752941 0.752941 0.752941
vn -0.527495 5.843416 -1.102243
v -0.002024 0.007341 0.016299 0.752941 0.752941 0.752941
vn -1.496363 4.884894 -2.707426
v -0.002260 0.007195 0.015896 0.752941 0.752941 0.752941
vn -2.522363 2.677475 -4.432558
v -0.002433 0.006835 0.015613 0.752941 0.752941 0.752941
vn -2.701591 0.522833 -5.224860
v -0.002497 0.006357 0.015526 0.752941 0.752941 0.752941
vn -0.721257 5.851456 -0.938752
v -0.002862 0.007371 0.016942 0.752941 0.752941 0.752941
vn -2.084833 4.906854 -2.235788
v -0.003196 0.007229 0.016614 0.752941 0.752941 0.752941
vn -3.550486 2.716028 -3.634945
v -0.003441 0.006871 0.016386 0.752941 0.752941 0.752941
vn -3.953892 0.568628 -4.348150
v -0.003531 0.006395 0.016318 0.752941 0.752941 0.752941
vn -0.867548 5.861275 -0.729674
v -0.003505 0.007411 0.017779 0.752941 0.752941 0.752941
vn -2.530271 4.936314 -1.629730
v -0.003915 0.007273 0.017549 0.752941 0.752941 0.752941
vn -4.335188 2.763390 -2.599459
v -0.004214 0.006919 0.017392 0.752941 0.752941 0.752941
vn -4.936734 0.623089 -3.179114
v -0.004324 0.006444 0.017351 0.752941 0.752941 0.752941
vn -0.955830 5.872290 -0.491029
v -0.003910 0.007457 0.018754 0.752941 0.752941 0.752941
vn -2.805333 4.969979 -0.926706
v -0.004366 0.007325 0.018638 0.752941 0.752941 0.752941
vn -4.825258 2.820196 -1.392716
v -0.004701 0.006975 0.018565 0.752941 0.752941 0.752941
vn -5.582865 0.686425 -1.796384
v -0.004823 0.006501 0.018554 0.752941 0.752941 0.752941
vn -0.979979 5.883954 -0.235075
v -0.004048 0.007507 0.019800 0.752941 0.752941 0.752941
vn -2.889410 5.005820 -0.178312
v -0.004520 0.007380 0.019806 0.752941 0.752941 0.752941
vn -4.986604 2.881260 -0.102663
v -0.004866 0.007034 0.019823 0.752941 0.752941 0.752941
vn -5.849144 0.757353 -0.292241
v -0.004993 0.006562 0.019845 0.752941 0.752941 0.752941
vn -0.934510 5.896299 0.017009
v -0.003910 0.007556 0.020847 0.752941 0.752941 0.752941
vn -2.776135 5.040579 0.567249
v -0.004366 0.007435 0.020975 0.752941 0.752941 0.752941
vn -4.807159 2.942545 1.185061
v -0.004701 0.007094 0.021081 0.752941 0.752941 0.752941
vn -5.716016 0.829097 1.227698
v -0.004823 0.006623 0.021136 0.752941 0.752941 0.752941
vn -0.826128 5.907501 0.246606
v -0.003505 0.007602 0.021822 0.752941 0.752941 0.752941
vn -2.472317 5.072678 1.256697
v -0.003915 0.007487 0.022064 0.752941 0.752941 0.752941
vn -4.302108 2.999931 2.383193
v -0.004214 0.007149 0.022253 0.752941 0.752941 0.752941
vn -5.193384 0.898093 2.663267
v -0.004324 0.006680 0.022339 0.752941 0.752941 0.752941
vn -0.663041 5.916191 0.443331
v -0.002862 0.007642 0.022659 0.752941 0.752941 0.752941
vn -2.001671 5.101758 1.843984
v -0.003196 0.007531 0.022999 0.752941 0.752941 0.752941
vn -3.503374 3.049413 3.408065
v -0.003441 0.007197 0.023260 0.752941 0.752941 0.752941
vn -4.318196 0.958680 3.911393
v -0.003531 0.006729 0.023372 0.752941 0.752941 0.752941
vn -0.453442 5.922966 0.590014
v -0.002024 0.007673 0.023302 0.752941 0.752941 0.752941
vn -1.395823 5.122666 2.291760
v -0.002260 0.007565 0.023717 0.752941 0.752941 0.752941
vn -2.463691 3.086873 4.192277
v -0.002433 0.007234 0.024033 0.752941 0.752941 0.752941
vn -3.146790 1.004327 4.894095
v -0.002497 0.006767 0.024165 0.752941 0.752941 0.752941
vn -0.210471 5.927701 0.675579
v -0.001048 0.007692 0.023706 0.752941 0.752941 0.752941
vn -0.691797 5.135167 2.566093
v -0.001170 0.007587 0.024168 0.752941 0.752941 0.752941
vn -1.258405 3.108162 4.683254
v -0.001260 0.007257 0.024518 0.752941 0.752941 0.752941
vn -1.760461 1.033498 5.541027
v -0.001292 0.006790 0.024663 0.752941 0.752941 0.752941
vn 0.042109 5.929023 0.697090
v -0.000000 0.007698 0.023843 0.752941 0.752941 0.752941
vn 0.059167 5.139366 2.647607
v -0.000000 0.007594 0.024322 0.752941 0.752941 0.752941
vn 0.033533 3.114985 4.844896
v -0.000000 0.007265 0.024684 0.752941 0.752941 0.752941
vn -0.256906 1.045581 5.805919
v -0.000000 0.006798 0.024833 0.752941 0.752941 0.752941
vn 0.294616 5.926379 0.654067
v 0.001048 0.007692 0.023706 0.752941 0.752941 0.752941
vn 0.803957 5.134297 2.534464
v 0.001170 0.007587 0.024168 0.752941 0.752941 0.752941
vn 1.322595 3.107278 4.666384
v 0.001260 0.007257 0.024518 0.752941 0.752941 0.752941
vn 1.265589 1.039539 5.673472
v 0.001292 0.006790 0.024663 0.752941 0.752941 0.752941
vn 0.528122 5.920875 0.547471
v 0.002024 0.007673 0.023302 0.752941 0.752941 0.752941
vn 1.496904 5.120241 2.232894
v 0.002260 0.007565 0.023717 0.752941 0.752941 0.752941
vn 2.522249 3.085573 4.158735
v 0.002433 0.007234 0.024033 0.752941 0.752941 0.752941
vn 2.701062 1.015891 5.151338
v 0.002497 0.006767 0.024165 0.752941 0.752941 0.752941
vn 0.723280 5.913598 0.381734
v 0.002862 0.007642 0.022659 0.752941 0.752941 0.752941
vn 2.086071 5.096600 1.762890
v 0.003196 0.007531 0.022999 0.752941 0.752941 0.752941
vn 3.550212 3.048202 3.359769
v 0.003441 0.007197 0.023260 0.752941 0.752941 0.752941
vn 3.955357 0.975721 4.274123
v 0.003531 0.006729 0.023372 0.752941 0.752941 0.752941
vn 0.868737 5.903997 0.173074
v 0.003505 0.007602 0.021822 0.752941 0.752941 0.752941
vn 2.530544 5.068242 1.155173
v 0.003915 0.007487 0.022064 0.752941 0.752941 0.752941
vn 4.335665 2.995981 2.326341
v 0.004214 0.007149 0.022253 0.752941 0.752941 0.752941
vn 4.937209 0.919866 3.105965
v 0.004324 0.006680 0.022339 0.752941 0.752941 0.752941
vn 0.957673 5.892104 -0.065524
v 0.003910 0.007556 0.020847 0.752941 0.752941 0.752941
vn 2.805110 5.035933 0.452956
v 0.004366 0.007435 0.020975 0.752941 0.752941 0.752941
vn 4.825100 2.938887 1.120193
v 0.004701 0.007094 0.021081 0.752941 0.752941 0.752941
vn 5.582788 0.852709 1.724133
v 0.004823 0.006623 0.021136 0.752941 0.752941 0.752941
vn 0.979067 5.879998 -0.322165
v 0.004048 0.007507 0.019800 0.752941 0.752941 0.752941
vn 2.890286 4.999830 -0.293946
v 0.004520 0.007380 0.019806 0.752941 0.752941 0.752941
vn 4.986165 2.878676 -0.169526
v 0.004866 0.007034 0.019823 0.752941 0.752941 0.752941
vn 5.849194 0.781419 0.219510
v 0.004993 0.006562 0.019845 0.752941 0.752941 0.752941
# 145 vertices, 0 vertices normals


usemtl material_0
vt 0.460477 0.766741
vt 0.455871 0.777995
vt 0.451146 0.775208
f 1/1/1 2/2/2 57/3/57
vt 0.455270 0.765273
f 1/1/1 57/3/57 53/4/53
vt 0.448517 0.787549
vt 0.444610 0.783733
f 2/2/2 3/5/3 61/6/61
f 2/2/2 61/6/61 57/3/57
vt 0.438854 0.794868
vt 0.436083 0.790230
f 3/5/3 4/7/4 65/8/65
f 3/5/3 65/8/65 61/6/61
vt 0.427526 0.799580
vt 0.426292 0.794310
f 4/7/4 5/9/5 69/10/69
f 4/7/4 69/10/69 65/8/65
vt 0.415552 0.801196
vt 0.415553 0.795765
f 5/9/5 6/11/6 73/12/73
f 5/9/5 73/12/73 69/10/69
vt 0.403598 0.799570
vt 0.404821 0.794308
f 6/11/6 7/13/7 77/14/77
f 6/11/6 77/14/77 73/12/73
vt 0.392263 0.794857
vt 0.395036 0.790227
f 7/13/7 8/15/8 81/16/81
f 7/13/7 81/16/81 77/14/77
vt 0.382587 0.787532
vt 0.386506 0.783728
f 8/15/8 9/17/9 85/18/85
f 8/15/8 85/18/85 81/16/81
vt 0.375252 0.777999
vt 0.379972 0.775208
f 9/17/9 10/19/10 89/20/89
f 9/17/9 89/20/89 85/18/85
vt 0.370643 0.766737
vt 0.375849 0.765272
f 10/19/10 11/21/11 93/22/93
f 10/19/10 93/22/93 89/20/89
vt 0.369054 0.754647
vt 0.374425 0.754627
f 11/21/11 12/23/12 97/24/97
f 11/21/11 97/24/97 93/22/93
vt 0.370604 0.742591
vt 0.375823 0.743988
f 12/23/12 13/25/13 101/26/101
f 12/23/12 101/26/101 97/24/97
vt 0.375234 0.731374
vt 0.379927 0.734068
f 13/25/13 14/27/14 105/28/105
f 13/25/13 105/28/105 101/26/101
vt 0.382636 0.721735
vt 0.386468 0.725548
f 14/27/14 15/29/15 109/30/109
f 14/27/14 109/30/109 105/28/105
vt 0.392292 0.714331
vt 0.394989 0.719009
f 15/29/15 16/31/16 113/32/113
f 15/29/15 113/32/113 109/30/109
vt 0.403510 0.709676
vt 0.404908 0.714900
f 16/31/16 17/33/17 117/34/117
f 16/31/16 117/34/117 113/32/113
vt 0.415560 0.708084
vt 0.415561 0.713497
f 17/33/17 18/35/18 121/36/121
f 17/33/17 121/36/121 117/34/117
vt 0.427609 0.709677
vt 0.426213 0.714900
f 18/35/18 19/37/19 125/38/125
f 18/35/18 125/38/125 121/36/121
vt 0.438831 0.714328
vt 0.436131 0.719008
f 19/37/19 20/39/20 129/40/129
f 19/37/19 129/40/129 125/38/125
vt 0.448493 0.721732
vt 0.444654 0.725549
f 20/39/20 21/41/21 133/42/133
f 20/39/20 133/42/133 129/40/129
vt 0.455882 0.731369
vt 0.451195 0.734072
f 21/41/21 22/43/22 137/44/137
f 21/41/21 137/44/137 133/42/133
vt 0.460502 0.742585
vt 0.455297 0.743988
f 22/43/22 23/45/23 141/46/141
f 22/43/22 141/46/141 137/44/137
vt 0.462060 0.754664
vt 0.456693 0.754628
f 23/45/23 24/47/24 145/48/145
f 23/45/23 145/48/145 141/46/141
f 24/47/24 1/1/1 53/4/53
f 24/47/24 53/4/53 145/48/145
vt 0.444743 0.762466
vt 0.441779 0.769727
vt 0.432000 0.764019
f 50/49/50 54/50/54 26/51/26
vt 0.433711 0.759517
f 50/49/50 26/51/26 25/52/25
vt 0.437006 0.775981
vt 0.428913 0.767992
f 54/50/54 58/53/58 27/54/27
f 54/50/54 27/54/27 26/51/26
vt 0.430574 0.780831
vt 0.425076 0.770912
f 58/53/58 62/55/62 28/56/28
f 58/53/58 28/56/28 27/54/27
vt 0.423286 0.783822
vt 0.420423 0.772906
f 62/55/62 66/57/66 29/58/29
f 62/55/62 29/58/29 28/56/28
vt 0.415557 0.784848
vt 0.415557 0.773431
f 66/57/66 70/59/70 30/60/30
f 66/57/66 30/60/30 29/58/29
vt 0.407823 0.783819
vt 0.410692 0.772905
f 70/59/70 74/61/74 31/62/31
f 70/59/70 31/62/31 30/60/30
vt 0.400537 0.780830
vt 0.406039 0.770910
f 74/61/74 78/63/78 32/64/32
f 74/61/74 32/64/32 31/62/31
vt 0.394113 0.775984
vt 0.402204 0.767992
f 78/63/78 82/65/82 33/66/33
f 78/63/78 33/66/33 32/64/32
vt 0.389340 0.769726
vt 0.399117 0.764019
f 82/65/82 86/67/86 34/68/34
f 82/65/82 34/68/34 33/66/33
vt 0.386376 0.762468
vt 0.397407 0.759518
f 86/67/86 90/69/90 35/70/35
f 86/67/86 35/70/35 34/68/34
vt 0.385345 0.754659
vt 0.396661 0.754628
f 90/69/90 94/71/94 36/72/36
f 90/69/90 36/72/36 35/70/35
vt 0.386358 0.746836
vt 0.397305 0.749738
f 94/71/94 98/73/98 37/74/37
f 94/71/94 37/74/37 36/72/36
vt 0.389380 0.739545
vt 0.399193 0.745181
f 98/73/98 102/75/102 38/76/38
f 98/73/98 38/76/38 37/74/37
vt 0.394184 0.733285
vt 0.402199 0.741269
f 102/75/102 106/77/106 39/78/39
f 102/75/102 39/78/39 38/76/38
vt 0.400444 0.728484
vt 0.406113 0.738266
f 106/77/106 110/79/110 40/80/40
f 106/77/106 40/80/40 39/78/39
vt 0.407738 0.725462
vt 0.410672 0.736378
f 110/79/110 114/81/114 41/82/41
f 110/79/110 41/82/41 40/80/40
vt 0.415561 0.724430
vt 0.415562 0.735732
f 114/81/114 118/83/118 42/84/42
f 114/81/114 42/84/42 41/82/41
vt 0.423384 0.725461
vt 0.420453 0.736376
f 118/83/118 122/85/122 43/86/43
f 118/83/118 43/86/43 42/84/42
vt 0.430679 0.728484
vt 0.425011 0.738263
f 122/85/122 126/87/126 44/88/44
f 122/85/122 44/88/44 43/86/43
vt 0.436940 0.733283
vt 0.428924 0.741266
f 126/87/126 130/89/130 45/90/45
f 126/87/126 45/90/45 44/88/44
vt 0.441740 0.739544
vt 0.431926 0.745178
f 130/89/130 134/91/134 46/92/46
f 130/89/130 46/92/46 45/90/45
vt 0.444761 0.746839
vt 0.433812 0.749736
f 134/91/134 138/93/138 47/94/47
f 134/91/134 47/94/47 46/92/46
vt 0.445776 0.754655
vt 0.434456 0.754626
f 138/93/138 142/95/142 48/96/48
f 138/93/138 48/96/48 47/94/47
f 142/95/142 50/49/50 25/52/25
f 142/95/142 25/52/25 48/96/48
vt 0.415559 0.755145
f 25/52/25 26/51/26 49/97/49
f 26/51/26 27/54/27 49/97/49
f 27/54/27 28/56/28 49/97/49
f 28/56/28 29/58/29 49/97/49
f 29/58/29 30/60/30 49/97/49
f 30/60/30 31/62/31 49/97/49
f 31/62/31 32/64/32 49/97/49
f 32/64/32 33/66/33 49/97/49
f 33/66/33 34/68/34 49/97/49
f 34/68/34 35/70/35 49/97/49
f 35/70/35 36/72/36 49/97/49
f 36/72/36 37/74/37 49/97/49
f 37/74/37 38/76/38 49/97/49
f 38/76/38 39/78/39 49/97/49
f 39/78/39 40/80/40 49/97/49
f 40/80/40 41/82/41 49/97/49
f 41/82/41 42/84/42 49/97/49
f 42/84/42 43/86/43 49/97/49
f 43/86/43 44/88/44 49/97/49
f 44/88/44 45/90/45 49/97/49
f 45/90/45 46/92/46 49/97/49
f 46/92/46 47/94/47 49/97/49
f 47/94/47 48/96/48 49/97/49
f 48/96/48 25/52/25 49/97/49
vt 0.451705 0.764306
vt 0.452981 0.754638
f 53/4/53 52/98/52 144/99/144
f 53/4/53 144/99/144 145/48/145
vt 0.448202 0.763390
vt 0.449378 0.754649
f 52/98/52 51/100/51 143/101/143
f 52/98/52 143/101/143 144/99/144
f 51/100/51 50/49/50 142/95/142
f 51/100/51 142/95/142 143/101/143
vt 0.444805 0.771521
f 50/49/50 51/100/51 55/102/55
f 50/49/50 55/102/55 54/50/54
vt 0.447928 0.773343
f 51/100/51 52/98/52 56/103/56
f 51/100/51 56/103/56 55/102/55
f 52/98/52 53/4/53 57/3/57
f 52/98/52 57/3/57 56/103/56
vt 0.439539 0.778520
f 54/50/54 55/102/55 59/104/59
f 54/50/54 59/104/59 58/53/58
vt 0.441921 0.781101
f 55/102/55 56/103/56 60/105/60
f 55/102/55 60/105/60 59/104/59
f 56/103/56 57/3/57 61/6/61
f 56/103/56 61/6/61 60/105/60
vt 0.432474 0.783946
f 58/53/58 59/104/59 63/106/63
f 58/53/58 63/106/63 62/55/62
vt 0.434307 0.787016
f 59/104/59 60/105/60 64/107/64
f 59/104/59 64/107/64 63/106/63
f 60/105/60 61/6/61 65/8/65
f 60/105/60 65/8/65 64/107/64
vt 0.424167 0.787293
f 62/55/62 63/106/63 67/108/67
f 62/55/62 67/108/67 66/57/66
vt 0.425310 0.790763
f 63/106/63 64/107/64 68/109/68
f 63/106/63 68/109/68 67/108/67
f 64/107/64 65/8/65 69/10/69
f 64/107/64 69/10/69 68/109/68
vt 0.415555 0.788406
f 66/57/66 67/108/67 71/110/71
f 66/57/66 71/110/71 70/59/70
vt 0.415553 0.792030
f 67/108/67 68/109/68 72/111/72
f 67/108/67 72/111/72 71/110/71
f 68/109/68 69/10/69 73/12/73
f 68/109/68 73/12/73 72/111/72
vt 0.406941 0.787291
f 70/59/70 71/110/71 75/112/75
f 70/59/70 75/112/75 74/61/74
vt 0.405800 0.790761
f 71/110/71 72/111/72 76/113/76
f 71/110/71 76/113/76 75/112/75
f 72/111/72 73/12/73 77/14/77
f 72/111/72 77/14/77 76/113/76
vt 0.398640 0.783945
f 74/61/74 75/112/75 79/114/79
f 74/61/74 79/114/79 78/63/78
vt 0.396811 0.787013
f 75/112/75 76/113/76 80/115/80
f 75/112/75 80/115/80 79/114/79
f 76/113/76 77/14/77 81/16/81
f 76/113/76 81/16/81 80/115/80
vt 0.391581 0.778522
f 78/63/78 79/114/79 83/116/83
f 78/63/78 83/116/83 82/65/82
vt 0.389197 0.781099
f 79/114/79 80/115/80 84/117/84
f 79/114/79 84/117/84 83/116/83
f 80/115/80 81/16/81 85/18/85
f 80/115/80 85/18/85 84/117/84
vt 0.386314 0.771519
f 82/65/82 83/116/83 87/118/87
f 82/65/82 87/118/87 86/67/86
vt 0.383191 0.773342
f 83/116/83 84/117/84 88/119/88
f 83/116/83 88/119/88 87/118/87
f 84/117/84 85/18/85 89/20/89
f 84/117/84 89/20/89 88/119/88
vt 0.382918 0.763391
f 86/67/86 87/118/87 91/120/91
f 86/67/86 91/120/91 90/69/90
vt 0.379414 0.764306
f 87/118/87 88/119/88 92/121/92
f 87/118/87 92/121/92 91/120/91
f 88/119/88 89/20/89 93/22/93
f 88/119/88 93/22/93 92/121/92
vt 0.381742 0.754654
f 90/69/90 91/120/91 95/122/95
f 90/69/90 95/122/95 94/71/94
vt 0.378138 0.754640
f 91/120/91 92/121/92 96/123/96
f 91/120/91 96/123/96 95/122/95
f 92/121/92 93/22/93 97/24/97
f 92/121/92 97/24/97 96/123/96
vt 0.382898 0.745908
f 94/71/94 95/122/95 99/124/99
f 94/71/94 99/124/99 98/73/98
vt 0.379404 0.744961
f 95/122/95 96/123/96 100/125/100
f 95/122/95 100/125/100 99/124/99
f 96/123/96 97/24/97 101/26/101
f 96/123/96 101/26/101 100/125/100
vt 0.386276 0.737749
f 98/73/98 99/124/99 103/126/103
f 98/73/98 103/126/103 102/75/102
vt 0.383146 0.735933
f 99/124/99 100/125/100 104/127/104
f 99/124/99 104/127/104 103/126/103
f 100/125/100 101/26/101 105/28/105
f 100/125/100 105/28/105 104/127/104
vt 0.391650 0.730747
f 102/75/102 103/126/103 107/128/107
f 102/75/102 107/128/107 106/77/106
vt 0.389095 0.728182
f 103/126/103 104/127/104 108/129/108
f 103/126/103 108/129/108 107/128/107
f 104/127/104 105/28/105 109/30/109
f 104/127/104 109/30/109 108/129/108
vt 0.398650 0.725377
f 106/77/106 107/128/107 111/130/111
f 106/77/106 111/130/111 110/79/110
vt 0.396844 0.722235
f 107/128/107 108/129/108 112/131/112
f 107/128/107 112/131/112 111/130/111
f 108/129/108 109/30/109 113/32/113
f 108/129/108 113/32/113 112/131/112
vt 0.406807 0.721998
f 110/79/110 111/130/111 115/132/115
f 110/79/110 115/132/115 114/81/114
vt 0.405869 0.718497
f 111/130/111 112/131/112 116/133/116
f 111/130/111 116/133/116 115/132/115
f 112/131/112 113/32/113 117/34/117
f 112/131/112 117/34/117 116/133/116
vt 0.415562 0.720844
f 114/81/114 115/132/115 119/134/119
f 114/81/114 119/134/119 118/83/118
vt 0.415560 0.717221
f 115/132/115 116/133/116 120/135/120
f 115/132/115 120/135/120 119/134/119
f 116/133/116 117/34/117 121/36/121
f 116/133/116 121/36/121 120/135/120
vt 0.424314 0.721997
f 118/83/118 119/134/119 123/136/123
f 118/83/118 123/136/123 122/85/122
vt 0.425252 0.718496
f 119/134/119 120/135/120 124/137/124
f 119/134/119 124/137/124 123/136/123
f 120/135/120 121/36/121 125/38/125
f 120/135/120 125/38/125 124/137/124
vt 0.432471 0.725376
f 122/85/122 123/136/123 127/138/127
f 122/85/122 127/138/127 126/87/126
vt 0.434276 0.722233
f 123/136/123 124/137/124 128/139/128
f 123/136/123 128/139/128 127/138/127
f 124/137/124 125/38/125 129/40/129
f 124/137/124 129/40/129 128/139/128
vt 0.439473 0.730747
f 126/87/126 127/138/127 131/140/131
f 126/87/126 131/140/131 130/89/130
vt 0.442026 0.728183
f 127/138/127 128/139/128 132/141/132
f 127/138/127 132/141/132 131/140/131
f 128/139/128 129/40/129 133/42/133
f 128/139/128 133/42/133 132/141/132
vt 0.444847 0.737752
f 130/89/130 131/140/131 135/142/135
f 130/89/130 135/142/135 134/91/134
vt 0.447977 0.735938
f 131/140/131 132/141/132 136/143/136
f 131/140/131 136/143/136 135/142/135
f 132/141/132 133/42/133 137/44/137
f 132/141/132 137/44/137 136/143/136
vt 0.448222 0.745911
f 134/91/134 135/142/135 139/144/139
f 134/91/134 139/144/139 138/93/138
vt 0.451717 0.744961
f 135/142/135 136/143/136 140/145/140
f 135/142/135 140/145/140 139/144/139
f 136/143/136 137/44/137 141/46/141
f 136/143/136 141/46/141 140/145/140
f 138/93/138 139/144/139 143/101/143
f 138/93/138 143/101/143 142/95/142
f 139/144/139 140/145/140 144/99/144
f 139/144/139 144/99/144 143/101/143
f 140/145/140 141/46/141 145/48/145
f 140/145/140 145/48/145 144/99/144
# 264 faces, 145 coords texture

# End of File
