# Blender v2.78 (sub 0) OBJ File: ''
# www.blender.org
mtllib S2.mtl
o si2_g_1175-Color_G11
v 0.923482 -1.215451 -2.353139
v 0.923482 -0.464467 -3.934169
v 0.923482 -0.464468 -2.353139
v 0.923482 -1.215451 -3.934170
v 0.923482 0.405092 2.268521
v 0.923482 1.077038 0.647976
v 0.923482 1.077038 2.268521
v 0.923482 0.405093 0.647976
v 0.923482 0.405093 1.280382
v 0.923482 -0.464469 3.019509
v 0.923482 0.405092 3.019509
v 0.923482 -0.464468 1.280382
v 0.923482 1.077037 4.521481
v 0.923482 3.527623 3.773321
v 0.923482 3.527623 4.484786
v 0.923482 2.732404 2.085082
v 0.923482 3.409037 -3.183185
v 0.923482 3.409037 -3.934169
v 0.923482 1.862843 2.085082
v 0.923482 1.862843 0.647976
v 0.923482 1.862843 -0.167883
v 0.923482 1.862843 -1.604989
v 0.923482 1.195606 -1.641680
v 0.923482 1.077038 -0.182070
v 0.923482 0.405093 -1.641680
v 0.923482 0.405093 -0.182070
v 0.923482 0.405093 -0.893530
v 0.923482 -0.464468 -0.893530
v 0.923482 0.405093 -2.353139
v 0.923482 -0.464468 -2.353139
v 0.923482 2.732404 -1.604989
v 0.923482 1.195606 -3.934169
v 0.923482 2.732404 0.647977
v 0.923482 2.732404 -0.167883
v 0.923482 4.397185 1.441318
v 0.923482 4.397184 3.773322
v 0.923482 4.397185 -0.851167
v 0.923482 4.397185 -3.183185
v 0.923482 5.069120 -0.851166
v 0.923482 5.069120 1.441318
v 0.923482 -1.136404 4.521481
v 0.923482 -0.464469 3.019509
v 0.923482 -0.464469 4.521481
v 0.923482 -1.136404 3.019509
v 0.923482 -0.464468 0.647976
v 0.923482 0.405093 -0.182070
v 0.923482 0.405093 0.647976
v 0.923482 -0.464468 -0.182070
v -1.052799 1.195606 -3.934169
v -1.052799 3.409037 -3.183185
v -1.052799 3.409037 -3.934169
v -1.052799 2.732404 -1.604989
v -1.052799 1.862843 -1.604989
v -1.052799 1.862843 -0.167883
v -1.052799 1.862843 0.647976
v -1.052799 1.862843 2.085082
v -1.052799 0.405093 -1.641680
v -1.052799 1.077038 -0.182070
v -1.052799 1.195606 -1.641680
v -1.052799 0.405093 -0.182070
v -1.052799 0.405093 -0.893530
v -1.052799 -0.464468 -2.353139
v -1.052799 0.405093 -2.353139
v -1.052799 -0.464468 -0.893530
v -1.052799 0.405093 0.647976
v -1.052799 1.077038 2.268521
v -1.052799 1.077038 0.647976
v -1.052799 0.405092 2.268521
v -1.052799 0.405093 1.280382
v -1.052799 -0.464468 1.280382
v -1.052799 0.405092 3.019509
v -1.052799 -0.464469 3.019509
v -1.052799 4.397185 -0.851167
v -1.052799 4.397185 -3.183185
v -1.052799 4.397185 1.441318
v -1.052799 4.397184 3.773322
v -1.052799 3.527623 3.773321
v -1.052799 3.527623 4.484786
v -1.052799 2.732404 2.085082
v -1.052799 1.077037 4.521481
v -1.052799 2.732404 -0.167883
v -1.052799 2.732404 0.647977
v -1.052799 5.069120 1.441318
v -1.052799 5.069120 -0.851166
v 0.923482 1.077037 4.521481
v -1.052799 3.527623 4.484786
v -1.052799 1.077037 4.521481
v 0.923482 3.527623 4.484786
v 0.923482 3.527623 3.773321
v -1.052799 3.527623 4.484786
v 0.923482 3.527623 4.484786
v -1.052799 3.527623 3.773321
v -1.052799 3.527623 3.773321
v 0.923482 4.397184 3.773322
v -1.052799 4.397184 3.773322
v 0.923482 3.527623 3.773321
v 0.923482 4.397185 1.441318
v -1.052799 4.397184 3.773322
v 0.923482 4.397184 3.773322
v -1.052799 4.397185 1.441318
v 0.923482 4.397185 1.441318
v -1.052799 5.069120 1.441318
v -1.052799 4.397185 1.441318
v 0.923482 5.069120 1.441318
v 0.923482 5.069120 -0.851166
v -1.052799 5.069120 1.441318
v 0.923482 5.069120 1.441318
v -1.052799 5.069120 -0.851166
v 0.923482 5.069120 -0.851166
v -1.052799 4.397185 -0.851167
v -1.052799 5.069120 -0.851166
v 0.923482 4.397185 -0.851167
v 0.923482 4.397185 -3.183185
v -1.052799 4.397185 -0.851167
v 0.923482 4.397185 -0.851167
v -1.052799 4.397185 -3.183185
v 0.923482 4.397185 -3.183185
v -1.052799 3.409037 -3.183185
v -1.052799 4.397185 -3.183185
v 0.923482 3.409037 -3.183185
v 0.923482 3.409037 -3.934169
v -1.052799 3.409037 -3.183185
v 0.923482 3.409037 -3.183185
v -1.052799 3.409037 -3.934169
v 0.923482 3.409037 -3.934169
v -1.052799 1.195606 -3.934169
v -1.052799 3.409037 -3.934169
v 0.923482 1.195606 -3.934169
v -1.052799 1.195606 -3.934169
v 0.923482 1.195606 -1.641680
v -1.052799 1.195606 -1.641680
v 0.923482 1.195606 -3.934169
v 0.923482 1.195606 -1.641680
v -1.052799 0.405093 -1.641680
v -1.052799 1.195606 -1.641680
v 0.923482 0.405093 -1.641680
v 0.923482 0.405093 -2.353139
v -1.052799 0.405093 -1.641680
v 0.923482 0.405093 -1.641680
v -1.052799 0.405093 -2.353139
v 0.923482 0.405093 -2.353139
v -1.052799 -0.464468 -2.353139
v -1.052799 0.405093 -2.353139
v 0.923482 -0.464468 -2.353139
v -1.052799 -0.464468 -2.353139
v 0.923482 -0.464468 -0.893530
v -1.052799 -0.464468 -0.893530
v 0.923482 -0.464468 -2.353139
v 0.923482 -0.464468 -0.893530
v -1.052799 0.405093 -0.893530
v -1.052799 -0.464468 -0.893530
v 0.923482 0.405093 -0.893530
v -1.052799 0.405093 -0.893530
v 0.923482 0.405093 -0.182070
v -1.052799 0.405093 -0.182070
v 0.923482 0.405093 -0.893530
v 0.923482 0.405093 -0.182070
v -1.052799 1.077038 -0.182070
v -1.052799 0.405093 -0.182070
v 0.923482 1.077038 -0.182070
v -1.052799 1.077038 -0.182070
v 0.923482 1.077038 0.647976
v -1.052799 1.077038 0.647976
v 0.923482 1.077038 -0.182070
v -1.052799 1.077038 0.647976
v 0.923482 0.405093 0.647976
v -1.052799 0.405093 0.647976
v 0.923482 1.077038 0.647976
v -1.052799 0.405093 0.647976
v 0.923482 0.405093 1.280382
v -1.052799 0.405093 1.280382
v 0.923482 0.405093 0.647976
v 0.923482 0.405093 1.280382
v -1.052799 -0.464468 1.280382
v -1.052799 0.405093 1.280382
v 0.923482 -0.464468 1.280382
v -1.052799 -0.464468 1.280382
v 0.923482 -0.464469 3.019509
v -1.052799 -0.464469 3.019509
v 0.923482 -0.464468 1.280382
v 0.923482 -0.464469 3.019509
v -1.052799 0.405092 3.019509
v -1.052799 -0.464469 3.019509
v 0.923482 0.405092 3.019509
v 0.923482 0.405092 2.268521
v -1.052799 0.405092 3.019509
v 0.923482 0.405092 3.019509
v -1.052799 0.405092 2.268521
v 0.923482 0.405092 2.268521
v -1.052799 1.077038 2.268521
v -1.052799 0.405092 2.268521
v 0.923482 1.077038 2.268521
v -1.052799 1.077038 2.268521
v 0.923482 1.077037 4.521481
v -1.052799 1.077037 4.521481
v 0.923482 1.077038 2.268521
v 0.923482 2.732404 2.085082
v -1.052799 1.862843 2.085082
v -1.052799 2.732404 2.085082
v 0.923482 1.862843 2.085082
v 0.923482 1.862843 0.647976
v -1.052799 1.862843 2.085082
v 0.923482 1.862843 2.085082
v -1.052799 1.862843 0.647976
v 0.923482 1.862843 0.647976
v -1.052799 2.732404 0.647977
v -1.052799 1.862843 0.647976
v 0.923482 2.732404 0.647977
v -1.052799 2.732404 0.647977
v 0.923482 2.732404 2.085082
v -1.052799 2.732404 2.085082
v 0.923482 2.732404 0.647977
v 0.923482 1.862843 -1.604989
v -1.052799 1.862843 -0.167883
v 0.923482 1.862843 -0.167883
v -1.052799 1.862843 -1.604989
v 0.923482 1.862843 -1.604989
v -1.052799 2.732404 -1.604989
v -1.052799 1.862843 -1.604989
v 0.923482 2.732404 -1.604989
v -1.052799 2.732404 -1.604989
v 0.923482 2.732404 -0.167883
v -1.052799 2.732404 -0.167883
v 0.923482 2.732404 -1.604989
v 0.923482 2.732404 -0.167883
v -1.052799 1.862843 -0.167883
v -1.052799 2.732404 -0.167883
v 0.923482 1.862843 -0.167883
v -1.052799 -1.215451 -3.934170
v -1.052799 -0.464468 -2.353139
v -1.052799 -0.464467 -3.934169
v -1.052799 -1.215451 -2.353139
v -1.052799 -1.215451 -2.353139
v 0.923482 -0.464468 -2.353139
v -1.052799 -0.464468 -2.353139
v 0.923482 -1.215451 -2.353139
v 0.923482 -0.464467 -3.934169
v -1.052799 -0.464468 -2.353139
v 0.923482 -0.464468 -2.353139
v -1.052799 -0.464467 -3.934169
v 0.923482 -0.464467 -3.934169
v -1.052799 -1.215451 -3.934170
v -1.052799 -0.464467 -3.934169
v 0.923482 -1.215451 -3.934170
v -1.052799 -1.215451 -3.934170
v 0.923482 -1.215451 -2.353139
v -1.052799 -1.215451 -2.353139
v 0.923482 -1.215451 -3.934170
v -1.052799 -1.136404 3.019509
v -1.052799 -0.464469 4.521481
v -1.052799 -0.464469 3.019509
v -1.052799 -1.136404 4.521481
v 0.923482 -0.464469 3.019509
v -1.052799 -0.464469 4.521481
v 0.923482 -0.464469 4.521481
v -1.052799 -0.464469 3.019509
v 0.923482 -0.464469 3.019509
v -1.052799 -1.136404 3.019509
v -1.052799 -0.464469 3.019509
v 0.923482 -1.136404 3.019509
v -1.052799 -1.136404 3.019509
v 0.923482 -1.136404 4.521481
v -1.052799 -1.136404 4.521481
v 0.923482 -1.136404 3.019509
v 0.923482 -1.136404 4.521481
v -1.052799 -0.464469 4.521481
v -1.052799 -1.136404 4.521481
v 0.923482 -0.464469 4.521481
v -1.052799 -0.464468 -0.182070
v -1.052799 0.405093 0.647976
v -1.052799 0.405093 -0.182070
v -1.052799 -0.464468 0.647976
v 0.923482 0.405093 -0.182070
v -1.052799 0.405093 0.647976
v 0.923482 0.405093 0.647976
v -1.052799 0.405093 -0.182070
v 0.923482 0.405093 -0.182070
v -1.052799 -0.464468 -0.182070
v -1.052799 0.405093 -0.182070
v 0.923482 -0.464468 -0.182070
v -1.052799 -0.464468 -0.182070
v 0.923482 -0.464468 0.647976
v -1.052799 -0.464468 0.647976
v 0.923482 -0.464468 -0.182070
v -1.052799 -0.464468 0.647976
v 0.923482 0.405093 0.647976
v -1.052799 0.405093 0.647976
v 0.923482 -0.464468 0.647976
vt 62.5984 68.4757
vt 55.1181 84.2237
vt 55.1181 68.4757
vt 62.5984 84.2237
vt 46.4567 22.4409
vt 39.7638 38.5827
vt 39.7638 22.4409
vt 46.4567 38.5827
vt 46.4567 32.2835
vt 55.1181 14.9606
vt 46.4567 14.9606
vt 55.1181 32.2835
vt 39.7638 0.0000
vt 15.3543 7.4521
vt 15.3543 0.3655
vt 23.2753 24.2681
vt 16.5354 76.7434
vt 16.5354 84.2237
vt 31.9367 24.2681
vt 31.9367 38.5827
vt 31.9367 46.7091
vt 31.9367 61.0236
vt 38.5827 61.3891
vt 39.7638 46.8504
vt 46.4567 61.3891
vt 46.4567 46.8504
vt 46.4567 53.9370
vt 55.1181 53.9370
vt 46.4567 68.4757
vt 55.1181 68.4757
vt 23.2753 61.0236
vt 38.5827 84.2237
vt 23.2753 38.5827
vt 23.2753 46.7091
vt 6.6929 30.6804
vt 6.6929 7.4521
vt 6.6929 53.5151
vt 6.6929 76.7434
vt 0.0000 53.5151
vt 0.0000 30.6804
vt 61.8110 0.0000
vt 55.1181 14.9606
vt 55.1181 0.0000
vt 61.8110 14.9606
vt 55.1181 38.5827
vt 46.4567 46.8504
vt 46.4567 38.5827
vt 55.1181 46.8504
vt -38.5827 84.2237
vt -16.5354 76.7434
vt -16.5354 84.2237
vt -23.2753 61.0236
vt -31.9367 61.0236
vt -31.9367 46.7091
vt -31.9367 38.5827
vt -31.9367 24.2681
vt -46.4567 61.3891
vt -39.7638 46.8504
vt -38.5827 61.3891
vt -46.4567 46.8504
vt -46.4567 53.9370
vt -55.1181 68.4757
vt -46.4567 68.4757
vt -55.1181 53.9370
vt -46.4567 38.5827
vt -39.7638 22.4409
vt -39.7638 38.5827
vt -46.4567 22.4409
vt -46.4567 32.2835
vt -55.1181 32.2835
vt -46.4567 14.9606
vt -55.1181 14.9606
vt -6.6929 53.5151
vt -6.6929 76.7434
vt -6.6929 30.6804
vt -6.6929 7.4521
vt -15.3543 7.4521
vt -15.3543 0.3655
vt -23.2753 24.2681
vt -39.7638 0.0000
vt -23.2753 46.7091
vt -23.2753 38.5827
vt -0.0000 30.6804
vt -0.0000 53.5151
vt 39.7593 -0.0000
vt 15.3471 -9.8425
vt 39.7593 -9.8425
vt 15.3471 0.0000
vt -7.4521 0.0000
vt -0.3655 -9.8425
vt -0.3655 0.0000
vt -7.4521 -9.8425
vt 15.3543 -9.8425
vt 6.6929 0.0000
vt 6.6929 -9.8425
vt 15.3543 0.0000
vt -30.6804 0.0000
vt -7.4521 -9.8425
vt -7.4521 0.0000
vt -30.6804 -9.8425
vt 6.6929 0.0000
vt 0.0000 -9.8425
vt 6.6929 -9.8425
vt 0.0000 0.0000
vt -53.5151 0.0000
vt -30.6804 -9.8425
vt -30.6804 0.0000
vt -53.5151 -9.8425
vt 0.0000 0.0000
vt -6.6929 -9.8425
vt -0.0000 -9.8425
vt -6.6929 0.0000
vt -76.7434 0.0000
vt -53.5151 -9.8425
vt -53.5151 0.0000
vt -76.7434 -9.8425
vt -6.6929 0.0000
vt -16.5354 -9.8425
vt -6.6929 -9.8425
vt -16.5354 0.0000
vt -84.2237 0.0000
vt -76.7434 -9.8425
vt -76.7434 0.0000
vt -84.2237 -9.8425
vt -16.5354 0.0000
vt -38.5827 -9.8425
vt -16.5354 -9.8425
vt -38.5827 0.0000
vt 84.2237 -9.8425
vt 61.3891 0.0000
vt 61.3891 -9.8425
vt 84.2237 0.0000
vt -38.5827 0.0000
vt -46.4567 -9.8425
vt -38.5827 -9.8425
vt -46.4567 0.0000
vt -68.4757 0.0000
vt -61.3891 -9.8425
vt -61.3891 0.0000
vt -68.4757 -9.8425
vt -46.4567 0.0000
vt -55.1181 -9.8425
vt -46.4567 -9.8425
vt -55.1181 0.0000
vt 68.4757 -9.8425
vt 53.9370 -0.0000
vt 53.9370 -9.8425
vt 68.4757 -0.0000
vt 55.1181 0.0000
vt 46.4567 -9.8425
vt 55.1181 -9.8425
vt 46.4567 0.0000
vt 53.9370 -9.8425
vt 46.8504 -0.0000
vt 46.8504 -9.8425
vt 53.9370 -0.0000
vt 46.4567 0.0000
vt 39.7638 -9.8425
vt 46.4567 -9.8425
vt 39.7638 0.0000
vt 46.8504 -9.8425
vt 38.5827 0.0000
vt 38.5827 -9.8425
vt 46.8504 0.0000
vt -39.7638 -9.8425
vt -46.4567 0.0000
vt -46.4567 -9.8425
vt -39.7638 0.0000
vt 38.5827 -9.8425
vt 32.2835 -0.0000
vt 32.2835 -9.8425
vt 38.5827 -0.0000
vt -46.4567 0.0000
vt -55.1181 -9.8425
vt -46.4567 -9.8425
vt -55.1181 0.0000
vt 32.2835 -9.8425
vt 14.9606 -0.0000
vt 14.9606 -9.8425
vt 32.2835 -0.0000
vt 55.1181 0.0000
vt 46.4567 -9.8425
vt 55.1181 -9.8425
vt 46.4567 0.0000
vt -22.4409 0.0000
vt -14.9606 -9.8425
vt -14.9606 0.0000
vt -22.4409 -9.8425
vt 46.4567 0.0000
vt 39.7638 -9.8425
vt 46.4567 -9.8425
vt 39.7638 0.0000
vt 22.4409 -9.8425
vt 0.0000 0.0000
vt 0.0000 -9.8425
vt 22.4409 0.0000
vt -23.2753 0.0000
vt -31.9367 -9.8425
vt -23.2753 -9.8425
vt -31.9367 0.0000
vt -38.5827 0.0000
vt -24.2681 -9.8425
vt -24.2681 0.0000
vt -38.5827 -9.8425
vt 31.9367 0.0000
vt 23.2753 -9.8425
vt 31.9367 -9.8425
vt 23.2753 0.0000
vt 38.5827 -9.8425
vt 24.2681 0.0000
vt 24.2681 -9.8425
vt 38.5827 0.0000
vt -61.0236 0.0000
vt -46.7091 -9.8425
vt -46.7091 0.0000
vt -61.0236 -9.8425
vt 31.9367 0.0000
vt 23.2753 -9.8425
vt 31.9367 -9.8425
vt 23.2753 0.0000
vt 61.0236 -9.8425
vt 46.7091 0.0000
vt 46.7091 -9.8425
vt 61.0236 0.0000
vt -23.2753 0.0000
vt -31.9367 -9.8425
vt -23.2753 -9.8425
vt -31.9367 0.0000
vt -62.5984 84.2237
vt -55.1181 68.4757
vt -55.1181 84.2237
vt -62.5984 68.4757
vt 62.5984 -9.8425
vt 55.1181 0.0000
vt 55.1181 -9.8425
vt 62.5984 0.0000
vt -84.2237 -0.0000
vt -68.4757 -9.8425
vt -68.4757 -0.0000
vt -84.2237 -9.8425
vt -55.1181 0.0000
vt -62.5984 -9.8425
vt -55.1181 -9.8425
vt -62.5984 0.0000
vt 84.2237 -9.8425
vt 68.4757 0.0000
vt 68.4757 -9.8425
vt 84.2237 0.0000
vt -61.8110 14.9606
vt -55.1181 0.0000
vt -55.1181 14.9606
vt -61.8110 0.0000
vt -14.9606 -0.0000
vt 0.0000 -9.8425
vt 0.0000 -0.0000
vt -14.9606 -9.8425
vt -55.1181 0.0000
vt -61.8110 -9.8425
vt -55.1181 -9.8425
vt -61.8110 0.0000
vt 14.9606 -9.8425
vt 0.0000 0.0000
vt 0.0000 -9.8425
vt 14.9606 0.0000
vt 61.8110 0.0000
vt 55.1181 -9.8425
vt 61.8110 -9.8425
vt 55.1181 0.0000
vt -55.1181 46.8504
vt -46.4567 38.5827
vt -46.4567 46.8504
vt -55.1181 38.5827
vt -46.8504 -0.0000
vt -38.5827 -9.8425
vt -38.5827 -0.0000
vt -46.8504 -9.8425
vt -46.4567 0.0000
vt -55.1181 -9.8425
vt -46.4567 -9.8425
vt -55.1181 0.0000
vt 46.8504 -9.8425
vt 38.5827 0.0000
vt 38.5827 -9.8425
vt 46.8504 0.0000
vt 55.1181 -9.8425
vt 46.4567 0.0000
vt 46.4567 -9.8425
vt 55.1181 0.0000
vn 1.0000 0.0000 0.0000
vn 1.0000 -0.0001 0.0000
vn -0.2580 0.0000 -0.9662
vn -0.2250 -0.4873 0.8437
vn 0.2308 -0.5116 -0.8277
vn -0.4473 -0.7746 0.4472
vn -0.9688 0.2480 -0.0000
vn 0.2493 -0.9684 -0.0000
vn -1.0000 -0.0000 0.0000
vn 0.9897 0.1431 0.0000
vn -0.2861 -0.6927 -0.6621
vn 0.0117 -0.0319 -0.9994
vn -1.0000 -0.0001 0.0000
vn -0.2753 -0.6100 -0.7431
vn -0.2249 0.0000 -0.9744
vn 0.6534 -0.7570 -0.0000
vn 0.0000 0.0150 0.9999
vn 0.0000 1.0000 0.0000
vn 0.0000 -0.0000 1.0000
vn 0.0000 0.0000 -1.0000
vn 0.0000 -1.0000 -0.0000
usemtl None
s 1
f 1/1/1 2/2/1 3/3/1
f 2/2/1 1/1/1 4/4/1
f 5/5/2 6/6/3 7/7/4
f 6/6/3 5/5/2 8/8/1
f 8/8/1 5/5/2 9/9/5
f 10/10/1 5/5/2 11/11/1
f 5/5/2 10/10/1 9/9/5
f 9/9/5 10/10/1 12/12/1
f 13/13/1 14/14/1 15/15/1
f 14/14/1 13/13/1 16/16/1
f 14/14/1 16/16/1 17/17/1
f 17/17/1 16/16/1 18/18/1
f 16/16/1 13/13/1 19/19/1
f 19/19/1 13/13/1 20/20/1
f 20/20/1 13/13/1 21/21/1
f 21/21/1 13/13/1 22/22/1
f 22/22/1 13/13/1 23/23/1
f 23/23/1 13/13/1 24/24/1
f 23/23/1 24/24/1 25/25/1
f 24/24/1 13/13/1 7/7/4
f 24/24/1 7/7/4 6/6/3
f 25/25/1 24/24/1 26/26/1
f 25/25/1 26/26/1 27/27/6
f 25/25/1 27/27/6 28/28/1
f 25/25/1 28/28/1 29/29/1
f 29/29/1 28/28/1 30/30/1
f 18/18/1 31/31/1 32/32/1
f 31/31/1 18/18/1 16/16/1
f 31/31/1 16/16/1 33/33/7
f 31/31/1 33/33/7 34/34/8
f 32/32/1 31/31/1 22/22/1
f 32/32/1 22/22/1 23/23/1
f 20/20/1 34/34/8 33/33/7
f 34/34/8 20/20/1 21/21/1
f 14/14/1 35/35/1 36/36/1
f 35/35/1 14/14/1 37/37/1
f 37/37/1 14/14/1 38/38/1
f 38/38/1 14/14/1 17/17/1
f 35/35/1 39/39/1 40/40/1
f 39/39/1 35/35/1 37/37/1
f 41/41/1 42/42/1 43/43/1
f 42/42/1 41/41/1 44/44/1
f 45/45/1 46/46/1 47/47/1
f 46/46/1 45/45/1 48/48/1
f 49/49/9 50/50/9 51/51/9
f 50/50/9 49/49/9 52/52/9
f 52/52/9 49/49/9 53/53/9
f 53/53/9 49/49/9 54/54/9
f 54/54/9 49/49/9 55/55/9
f 55/55/9 49/49/9 56/56/9
f 57/57/9 58/58/9 59/59/9
f 58/58/9 57/57/9 60/60/9
f 60/60/9 57/57/9 61/61/10
f 62/62/9 57/57/9 63/63/9
f 57/57/9 62/62/9 61/61/10
f 61/61/10 62/62/9 64/64/9
f 65/65/9 66/66/11 67/67/12
f 66/66/11 65/65/9 68/68/13
f 68/68/13 65/65/9 69/69/14
f 68/68/13 69/69/14 70/70/9
f 68/68/13 70/70/9 71/71/9
f 71/71/9 70/70/9 72/72/9
f 50/50/9 73/73/9 74/74/9
f 73/73/9 50/50/9 75/75/9
f 75/75/9 50/50/9 76/76/9
f 76/76/9 50/50/9 77/77/9
f 77/77/9 50/50/9 78/78/9
f 78/78/9 50/50/9 79/79/9
f 78/78/9 79/79/9 80/80/9
f 79/79/9 50/50/9 52/52/9
f 79/79/9 52/52/9 81/81/15
f 79/79/9 81/81/15 82/82/16
f 80/80/9 79/79/9 56/56/9
f 80/80/9 56/56/9 59/59/9
f 59/59/9 56/56/9 49/49/9
f 80/80/9 59/59/9 58/58/9
f 80/80/9 58/58/9 67/67/12
f 80/80/9 67/67/12 66/66/11
f 54/54/9 82/82/16 81/81/15
f 82/82/16 54/54/9 55/55/9
f 73/73/9 83/83/9 84/84/9
f 83/83/9 73/73/9 75/75/9
f 85/85/17 86/86/17 87/87/17
f 86/86/17 85/85/17 88/88/17
f 89/89/18 90/90/18 91/91/18
f 90/90/18 89/89/18 92/92/18
f 93/93/19 94/94/19 95/95/19
f 94/94/19 93/93/19 96/96/19
f 97/97/18 98/98/18 99/99/18
f 98/98/18 97/97/18 100/100/18
f 101/101/19 102/102/19 103/103/19
f 102/102/19 101/101/19 104/104/19
f 105/105/18 106/106/18 107/107/18
f 106/106/18 105/105/18 108/108/18
f 109/109/20 110/110/20 111/111/20
f 110/110/20 109/109/20 112/112/20
f 113/113/18 114/114/18 115/115/18
f 114/114/18 113/113/18 116/116/18
f 117/117/20 118/118/20 119/119/20
f 118/118/20 117/117/20 120/120/20
f 121/121/18 122/122/18 123/123/18
f 122/122/18 121/121/18 124/124/18
f 125/125/20 126/126/20 127/127/20
f 126/126/20 125/125/20 128/128/20
f 129/129/21 130/130/21 131/131/21
f 130/130/21 129/129/21 132/132/21
f 133/133/20 134/134/20 135/135/20
f 134/134/20 133/133/20 136/136/20
f 137/137/18 138/138/18 139/139/18
f 138/138/18 137/137/18 140/140/18
f 141/141/20 142/142/20 143/143/20
f 142/142/20 141/141/20 144/144/20
f 145/145/21 146/146/21 147/147/21
f 146/146/21 145/145/21 148/148/21
f 149/149/19 150/150/19 151/151/19
f 150/150/19 149/149/19 152/152/19
f 153/153/21 154/154/21 155/155/21
f 154/154/21 153/153/21 156/156/21
f 157/157/19 158/158/19 159/159/19
f 158/158/19 157/157/19 160/160/19
f 161/161/21 162/162/21 163/163/21
f 162/162/21 161/161/21 164/164/21
f 165/165/20 166/166/20 167/167/20
f 166/166/20 165/165/20 168/168/20
f 169/169/21 170/170/21 171/171/21
f 170/170/21 169/169/21 172/172/21
f 173/173/20 174/174/20 175/175/20
f 174/174/20 173/173/20 176/176/20
f 177/177/21 178/178/21 179/179/21
f 178/178/21 177/177/21 180/180/21
f 181/181/19 182/182/19 183/183/19
f 182/182/19 181/181/19 184/184/19
f 185/185/18 186/186/18 187/187/18
f 186/186/18 185/185/18 188/188/18
f 189/189/19 190/190/19 191/191/19
f 190/190/19 189/189/19 192/192/19
f 193/193/21 194/194/21 195/195/21
f 194/194/21 193/193/21 196/196/21
f 197/197/20 198/198/20 199/199/20
f 198/198/20 197/197/20 200/200/20
f 201/201/18 202/202/18 203/203/18
f 202/202/18 201/201/18 204/204/18
f 205/205/19 206/206/19 207/207/19
f 206/206/19 205/205/19 208/208/19
f 209/209/21 210/210/21 211/211/21
f 210/210/21 209/209/21 212/212/21
f 213/213/18 214/214/18 215/215/18
f 214/214/18 213/213/18 216/216/18
f 217/217/19 218/218/19 219/219/19
f 218/218/19 217/217/19 220/220/19
f 221/221/21 222/222/21 223/223/21
f 222/222/21 221/221/21 224/224/21
f 225/225/20 226/226/20 227/227/20
f 226/226/20 225/225/20 228/228/20
f 229/229/9 230/230/9 231/231/9
f 230/230/9 229/229/9 232/232/9
f 233/233/19 234/234/19 235/235/19
f 234/234/19 233/233/19 236/236/19
f 237/237/18 238/238/18 239/239/18
f 238/238/18 237/237/18 240/240/18
f 241/241/20 242/242/20 243/243/20
f 242/242/20 241/241/20 244/244/20
f 245/245/21 246/246/21 247/247/21
f 246/246/21 245/245/21 248/248/21
f 249/249/9 250/250/9 251/251/9
f 250/250/9 249/249/9 252/252/9
f 253/253/18 254/254/18 255/255/18
f 254/254/18 253/253/18 256/256/18
f 257/257/20 258/258/20 259/259/20
f 258/258/20 257/257/20 260/260/20
f 261/261/21 262/262/21 263/263/21
f 262/262/21 261/261/21 264/264/21
f 265/265/19 266/266/19 267/267/19
f 266/266/19 265/265/19 268/268/19
f 269/269/9 270/270/9 271/271/9
f 270/270/9 269/269/9 272/272/9
f 273/273/18 274/274/18 275/275/18
f 274/274/18 273/273/18 276/276/18
f 277/277/20 278/278/20 279/279/20
f 278/278/20 277/277/20 280/280/20
f 281/281/21 282/282/21 283/283/21
f 282/282/21 281/281/21 284/284/21
f 285/285/19 286/286/19 287/287/19
f 286/286/19 285/285/19 288/288/19
