####
#
# OBJ File Generated by Meshlab
#
####
# Object sys_button.obj
#
# Vertices: 145
# Faces: 264
#
####
mtllib ./sys_button.obj.mtl

vn 2.833144 0.094539 -0.903514
v 0.004820 0.000530 0.086803 0.752941 0.752941 0.752941
vn 2.517053 0.176638 -1.585328
v 0.004327 0.000663 0.085618 0.752941 0.752941 0.752941
vn 2.000445 0.247689 -2.186728
v 0.003531 0.000774 0.084571 0.752941 0.752941 0.752941
vn 1.335902 0.299231 -2.642401
v 0.002497 0.000863 0.083798 0.752941 0.752941 0.752941
vn 0.672826 0.326914 -2.888164
v 0.001293 0.000923 0.083326 0.752941 0.752941 0.752941
vn -0.152950 0.333322 -2.945976
v 0.000000 0.000936 0.083127 0.752941 0.752941 0.752941
vn -0.887609 0.320500 -2.830299
v -0.001292 0.000923 0.083326 0.752941 0.752941 0.752941
vn -1.568899 0.284435 -2.512887
v -0.002496 0.000863 0.083798 0.752941 0.752941 0.752941
vn -2.196866 0.225747 -1.991850
v -0.003531 0.000774 0.084571 0.752941 0.752941 0.752941
vn -2.639512 0.149006 -1.374927
v -0.004327 0.000663 0.085618 0.752941 0.752941 0.752941
vn -2.904339 0.067170 -0.642220
v -0.004820 0.000530 0.086803 0.752941 0.752941 0.752941
vn -2.973876 -0.014540 0.138674
v -0.004993 0.000397 0.088109 0.752941 0.752941 0.752941
vn -2.838927 -0.085896 0.894525
v -0.004820 0.000266 0.089416 0.752941 0.752941 0.752941
vn -2.519642 -0.148478 1.581285
v -0.004327 0.000146 0.090602 0.752941 0.752941 0.752941
vn -1.998922 -0.205125 2.192478
v -0.003532 0.000051 0.091651 0.752941 0.752941 0.752941
vn -1.373172 -0.264241 2.631066
v -0.002497 -0.000037 0.092423 0.752941 0.752941 0.752941
vn -0.645950 -0.298651 2.890052
v -0.001293 -0.000059 0.092897 0.752941 0.752941 0.752941
vn 0.129816 -0.305625 2.958872
v -0.000000 -0.000101 0.093094 0.752941 0.752941 0.752941
vn 0.901797 -0.291994 2.821475
v 0.001293 -0.000059 0.092897 0.752941 0.752941 0.752941
vn 1.587557 -0.244153 2.509449
v 0.002497 -0.000037 0.092423 0.752941 0.752941 0.752941
vn 2.196480 -0.187041 1.996386
v 0.003532 0.000051 0.091651 0.752941 0.752941 0.752941
vn 2.645739 -0.128214 1.361884
v 0.004327 0.000146 0.090602 0.752941 0.752941 0.752941
vn 2.906017 -0.063842 0.646566
v 0.004820 0.000266 0.089416 0.752941 0.752941 0.752941
vn 2.974646 0.012708 -0.121259
v 0.004993 0.000397 0.088109 0.752941 0.752941 0.752941
vn -0.287239 2.954877 0.428503
v 0.001701 0.003187 0.087945 0.752941 0.752941 0.752941
vn -0.243545 2.941943 0.531155
v 0.001525 0.003248 0.087502 0.752941 0.752941 0.752941
vn -0.220730 2.932401 0.592290
v 0.001245 0.003302 0.087173 0.752941 0.752941 0.752941
vn -0.209930 2.925128 0.622562
v 0.000880 0.003300 0.086863 0.752941 0.752941 0.752941
vn -0.073959 2.917195 0.695722
v 0.000456 0.003356 0.086675 0.752941 0.752941 0.752941
vn -0.019389 2.923728 0.669659
v 0.000000 0.003361 0.086624 0.752941 0.752941 0.752941
vn 0.066063 2.920461 0.682691
v -0.000456 0.003356 0.086675 0.752941 0.752941 0.752941
vn 0.145811 2.919509 0.665795
v -0.000880 0.003300 0.086863 0.752941 0.752941 0.752941
vn 0.247325 2.931533 0.586073
v -0.001245 0.003302 0.087172 0.752941 0.752941 0.752941
vn 0.219108 2.937604 0.564770
v -0.001525 0.003248 0.087502 0.752941 0.752941 0.752941
vn 0.277792 2.950591 0.462873
v -0.001701 0.003187 0.087945 0.752941 0.752941 0.752941
vn 0.303000 2.963415 0.349841
v -0.001760 0.003138 0.088382 0.752941 0.752941 0.752941
vn 0.299503 2.977183 0.186614
v -0.001701 0.003075 0.088879 0.752941 0.752941 0.752941
vn 0.256691 2.988699 0.039074
v -0.001525 0.003058 0.089324 0.752941 0.752941 0.752941
vn 0.216929 2.991823 0.028693
v -0.001244 0.003045 0.089656 0.752941 0.752941 0.752941
vn 0.170163 2.994874 -0.024536
v -0.000880 0.003010 0.089903 0.752941 0.752941 0.752941
vn 0.108585 2.996420 -0.080604
v -0.000456 0.002987 0.090093 0.752941 0.752941 0.752941
vn 0.011269 2.997848 -0.108523
v 0.000000 0.002984 0.090144 0.752941 0.752941 0.752941
vn -0.072001 2.997094 -0.094565
v 0.000456 0.002987 0.090093 0.752941 0.752941 0.752941
vn -0.159227 2.995238 -0.046322
v 0.000880 0.003010 0.089903 0.752941 0.752941 0.752941
vn -0.198688 2.993193 0.011148
v 0.001244 0.003045 0.089656 0.752941 0.752941 0.752941
vn -0.245580 2.989592 0.042029
v 0.001525 0.003058 0.089324 0.752941 0.752941 0.752941
vn -0.283911 2.982488 0.111404
v 0.001701 0.003075 0.088879 0.752941 0.752941 0.752941
vn -0.309116 2.967678 0.305460
v 0.001760 0.003138 0.088382 0.752941 0.752941 0.752941
vn -0.000000 0.000019 0.000002
v -0.000000 0.003031 0.088376 0.752941 0.752941 0.752941
vn -0.734706 5.868870 0.978700
v 0.003266 0.003405 0.087511 0.752941 0.752941 0.752941
vn -1.176379 5.785846 1.017236
v 0.004367 0.003616 0.087250 0.752941 0.752941 0.752941
vn 1.462324 4.847624 0.030552
v 0.004729 0.003729 0.087215 0.752941 0.752941 0.752941
vn 5.186105 1.969569 -0.932328
v 0.004820 0.003587 0.087093 0.752941 0.752941 0.752941
vn -0.613313 5.842339 1.200754
v 0.002928 0.003504 0.086729 0.752941 0.752941 0.752941
vn -0.950985 5.779726 1.282108
v 0.003915 0.003763 0.086198 0.752941 0.752941 0.752941
vn 1.227294 5.062969 -0.201798
v 0.004241 0.003853 0.086051 0.752941 0.752941 0.752941
vn 4.599890 2.278302 -2.120988
v 0.004327 0.003753 0.085971 0.752941 0.752941 0.752941
vn -0.539073 5.822258 1.329032
v 0.002390 0.003611 0.086004 0.752941 0.752941 0.752941
vn -0.653806 5.783552 1.444044
v 0.003197 0.003882 0.085230 0.752941 0.752941 0.752941
vn 1.151100 4.991543 -0.710530
v 0.003463 0.003982 0.084987 0.752941 0.752941 0.752941
vn 3.821985 2.415382 -3.189050
v 0.003531 0.003906 0.084925 0.752941 0.752941 0.752941
vn -0.375249 5.799715 1.472735
v 0.001689 0.003665 0.085547 0.752941 0.752941 0.752941
vn -0.438869 5.781752 1.539598
v 0.002261 0.003993 0.084554 0.752941 0.752941 0.752941
vn 0.912575 4.696414 -1.319511
v 0.002448 0.004091 0.084194 0.752941 0.752941 0.752941
vn 2.870425 2.197782 -4.378224
v 0.002497 0.003998 0.084153 0.752941 0.752941 0.752941
vn -0.185635 5.793002 1.536326
v 0.000875 0.003708 0.085185 0.752941 0.752941 0.752941
vn -0.239345 5.743310 1.704632
v 0.001170 0.004043 0.084081 0.752941 0.752941 0.752941
vn 0.384040 4.969710 -1.244208
v 0.001267 0.004141 0.083735 0.752941 0.752941 0.752941
vn 1.626339 2.207331 -4.993758
v 0.001293 0.004064 0.083682 0.752941 0.752941 0.752941
vn 0.042425 5.793793 1.540210
v 0.000000 0.003715 0.085068 0.752941 0.752941 0.752941
vn -0.017587 5.720538 1.805686
v 0.000000 0.004048 0.083994 0.752941 0.752941 0.752941
vn -0.097493 5.131456 -0.994880
v 0.000000 0.004181 0.083637 0.752941 0.752941 0.752941
vn 0.243731 2.614355 -4.875250
v 0.000000 0.004079 0.083482 0.752941 0.752941 0.752941
vn 0.242748 5.792443 1.531734
v -0.000875 0.003708 0.085185 0.752941 0.752941 0.752941
vn 0.241716 5.757902 1.656775
v -0.001170 0.004043 0.084080 0.752941 0.752941 0.752941
vn -0.669717 4.749150 -1.297618
v -0.001267 0.004141 0.083735 0.752941 0.752941 0.752941
vn -1.179918 2.407886 -4.936559
v -0.001292 0.004064 0.083682 0.752941 0.752941 0.752941
vn 0.449792 5.807977 1.417060
v -0.001689 0.003665 0.085547 0.752941 0.752941 0.752941
vn 0.453010 5.775101 1.560830
v -0.002261 0.003993 0.084553 0.752941 0.752941 0.752941
vn -1.104809 4.802621 -1.127516
v -0.002448 0.004091 0.084194 0.752941 0.752941 0.752941
vn -2.474141 2.092087 -4.722311
v -0.002496 0.003998 0.084153 0.752941 0.752941 0.752941
vn 0.553704 5.828526 1.295978
v -0.002390 0.003611 0.086004 0.752941 0.752941 0.752941
vn 0.685264 5.775093 1.459983
v -0.003197 0.003882 0.085230 0.752941 0.752941 0.752941
vn -1.304996 5.073642 -0.460871
v -0.003463 0.003982 0.084986 0.752941 0.752941 0.752941
vn -3.547309 2.348231 -3.621525
v -0.003531 0.003906 0.084925 0.752941 0.752941 0.752941
vn 0.658685 5.849971 1.138248
v -0.002928 0.003504 0.086729 0.752941 0.752941 0.752941
vn 0.998957 5.767420 1.290929
v -0.003915 0.003763 0.086198 0.752941 0.752941 0.752941
vn -1.425045 5.000941 -0.071266
v -0.004241 0.003853 0.086051 0.752941 0.752941 0.752941
vn -4.349017 2.376758 -2.442337
v -0.004327 0.003753 0.085970 0.752941 0.752941 0.752941
vn 0.764928 5.880266 0.881345
v -0.003266 0.003405 0.087511 0.752941 0.752941 0.752941
vn 1.179442 5.785907 1.008811
v -0.004367 0.003616 0.087249 0.752941 0.752941 0.752941
vn -1.583634 4.762642 0.274246
v -0.004729 0.003729 0.087214 0.752941 0.752941 0.752941
vn -5.018519 2.074344 -1.365848
v -0.004820 0.003587 0.087093 0.752941 0.752941 0.752941
vn 0.801446 5.912055 0.593462
v -0.003378 0.003296 0.088390 0.752941 0.752941 0.752941
vn 1.251098 5.827400 0.604182
v -0.004522 0.003492 0.088462 0.752941 0.752941 0.752941
vn -1.609258 4.683821 0.645703
v -0.004897 0.003575 0.088467 0.752941 0.752941 0.752941
vn -5.344359 1.825863 -0.028891
v -0.004993 0.003465 0.088461 0.752941 0.752941 0.752941
vn 0.713110 5.948133 0.184827
v -0.003266 0.003214 0.089333 0.752941 0.752941 0.752941
vn 1.192042 5.863918 0.149946
v -0.004367 0.003362 0.089613 0.752941 0.752941 0.752941
vn -1.565372 4.582197 0.961938
v -0.004729 0.003469 0.089660 0.752941 0.752941 0.752941
vn -5.237731 1.672181 1.337966
v -0.004820 0.003322 0.089706 0.752941 0.752941 0.752941
vn 0.643149 5.962950 0.013055
v -0.002928 0.003170 0.090118 0.752941 0.752941 0.752941
vn 0.963432 5.916039 -0.112481
v -0.003915 0.003305 0.090732 0.752941 0.752941 0.752941
vn -1.353727 4.657387 1.287075
v -0.004241 0.003375 0.090887 0.752941 0.752941 0.752941
vn -4.789428 1.550266 2.579390
v -0.004327 0.003239 0.090893 0.752941 0.752941 0.752941
vn 0.501622 5.972338 -0.137440
v -0.002390 0.003103 0.090844 0.752941 0.752941 0.752941
vn 0.674236 5.952229 -0.246411
v -0.003197 0.003226 0.091640 0.752941 0.752941 0.752941
vn -1.180013 4.667951 1.750416
v -0.003463 0.003266 0.091891 0.752941 0.752941 0.752941
vn -3.913274 1.554780 3.708127
v -0.003532 0.003190 0.091944 0.752941 0.752941 0.752941
vn 0.368202 5.978024 -0.285477
v -0.001689 0.003074 0.091303 0.752941 0.752941 0.752941
vn 0.417290 5.969663 -0.423418
v -0.002261 0.003198 0.092383 0.752941 0.752941 0.752941
vn -0.905493 4.605857 2.053909
v -0.002449 0.003229 0.092688 0.752941 0.752941 0.752941
vn -2.874957 1.395972 4.648265
v -0.002497 0.003102 0.092717 0.752941 0.752941 0.752941
vn 0.198834 5.982805 -0.354656
v -0.000875 0.003049 0.091667 0.752941 0.752941 0.752941
vn 0.291613 5.973040 -0.481247
v -0.001170 0.003170 0.092796 0.752941 0.752941 0.752941
vn -0.312815 4.905546 2.005233
v -0.001267 0.003200 0.093148 0.752941 0.752941 0.752941
vn -1.607110 1.466867 5.108180
v -0.001293 0.003086 0.093253 0.752941 0.752941 0.752941
vn -0.043777 5.984828 -0.370104
v -0.000000 0.003043 0.091782 0.752941 0.752941 0.752941
vn -0.008490 5.975702 -0.490554
v -0.000000 0.003132 0.092941 0.752941 0.752941 0.752941
vn 0.111141 5.063994 1.927171
v -0.000000 0.003161 0.093307 0.752941 0.752941 0.752941
vn -0.199959 1.769649 5.115016
v -0.000000 0.003076 0.093391 0.752941 0.752941 0.752941
vn -0.268534 5.980762 -0.338087
v 0.000875 0.003049 0.091667 0.752941 0.752941 0.752941
vn -0.269067 5.974844 -0.471177
v 0.001170 0.003170 0.092796 0.752941 0.752941 0.752941
vn 0.570595 4.753811 2.063119
v 0.001267 0.003200 0.093148 0.752941 0.752941 0.752941
vn 1.102167 1.621268 5.109960
v 0.001293 0.003086 0.093253 0.752941 0.752941 0.752941
vn -0.401477 5.977451 -0.247990
v 0.001689 0.003075 0.091303 0.752941 0.752941 0.752941
vn -0.420241 5.969506 -0.422427
v 0.002261 0.003198 0.092383 0.752941 0.752941 0.752941
vn 1.103168 4.638471 1.939543
v 0.002449 0.003227 0.092689 0.752941 0.752941 0.752941
vn 2.488829 1.365409 4.871094
v 0.002497 0.003102 0.092718 0.752941 0.752941 0.752941
vn -0.565217 5.968201 -0.066650
v 0.002390 0.003103 0.090844 0.752941 0.752941 0.752941
vn -0.705453 5.946970 -0.268211
v 0.003197 0.003226 0.091640 0.752941 0.752941 0.752941
vn 1.395071 4.718177 1.565313
v 0.003463 0.003266 0.091891 0.752941 0.752941 0.752941
vn 3.583482 1.500938 4.060730
v 0.003532 0.003190 0.091944 0.752941 0.752941 0.752941
vn -0.655387 5.962000 0.021143
v 0.002928 0.003170 0.090118 0.752941 0.752941 0.752941
vn -1.038268 5.900446 -0.125564
v 0.003915 0.003305 0.090732 0.752941 0.752941 0.752941
vn 1.585644 4.611933 1.126214
v 0.004242 0.003375 0.090887 0.752941 0.752941 0.752941
vn 4.519837 1.574568 2.968359
v 0.004327 0.003239 0.090893 0.752941 0.752941 0.752941
vn -0.758628 5.935309 0.340883
v 0.003264 0.003214 0.089333 0.752941 0.752941 0.752941
vn -1.174275 5.867019 0.165063
v 0.004367 0.003362 0.089613 0.752941 0.752941 0.752941
vn 1.605926 4.634551 0.687196
v 0.004730 0.003469 0.089660 0.752941 0.752941 0.752941
vn 5.156901 1.585694 1.766546
v 0.004820 0.003322 0.089706 0.752941 0.752941 0.752941
vn -0.798491 5.901794 0.688786
v 0.003379 0.003296 0.088390 0.752941 0.752941 0.752941
vn -1.243355 5.826289 0.631332
v 0.004522 0.003492 0.088462 0.752941 0.752941 0.752941
vn 1.616111 4.700494 0.357745
v 0.004897 0.003575 0.088467 0.752941 0.752941 0.752941
vn 5.337663 1.783635 0.440176
v 0.004993 0.003465 0.088461 0.752941 0.752941 0.752941
# 145 vertices, 0 vertices normals


usemtl material_0
vt 0.462324 0.580069
vt 0.457773 0.591001
vt 0.453807 0.588867
f 1/1/1 2/2/2 57/3/57
vt 0.458058 0.579010
f 1/1/1 57/3/57 53/4/53
vt 0.450529 0.600258
vt 0.447207 0.597153
f 2/2/2 3/5/3 61/6/61
f 2/2/2 61/6/61 57/3/57
vt 0.441114 0.607298
vt 0.438746 0.603435
f 3/5/3 4/7/4 65/8/65
f 3/5/3 65/8/65 61/6/61
vt 0.430274 0.611719
vt 0.429063 0.607365
f 4/7/4 5/9/5 69/10/69
f 4/7/4 69/10/69 65/8/65
vt 0.418736 0.613237
vt 0.418719 0.608707
f 5/9/5 6/11/6 73/12/73
f 5/9/5 73/12/73 69/10/69
vt 0.407152 0.611711
vt 0.408378 0.607362
f 6/11/6 7/13/7 77/14/77
f 6/11/6 77/14/77 73/12/73
vt 0.396313 0.607295
vt 0.398699 0.603435
f 7/13/7 8/15/8 81/16/81
f 7/13/7 81/16/81 77/14/77
vt 0.386934 0.600268
vt 0.390238 0.597149
f 8/15/8 9/17/9 85/18/85
f 8/15/8 85/18/85 81/16/81
vt 0.379669 0.590983
vt 0.383635 0.588869
f 9/17/9 10/19/10 89/20/89
f 9/17/9 89/20/89 85/18/85
vt 0.375112 0.580068
vt 0.379390 0.579014
f 10/19/10 11/21/11 93/22/93
f 10/19/10 93/22/93 89/20/89
vt 0.373570 0.568345
vt 0.377942 0.568337
f 11/21/11 12/23/12 97/24/97
f 11/21/11 97/24/97 93/22/93
vt 0.375117 0.556623
vt 0.379393 0.557674
f 12/23/12 13/25/13 101/26/101
f 12/23/12 101/26/101 97/24/97
vt 0.379672 0.545708
vt 0.383636 0.547816
f 13/25/13 14/27/14 105/28/105
f 13/25/13 105/28/105 101/26/101
vt 0.386938 0.536427
vt 0.390249 0.539535
f 14/27/14 15/29/15 109/30/109
f 14/27/14 109/30/109 105/28/105
vt 0.396324 0.529396
vt 0.398699 0.533255
f 15/29/15 16/31/16 113/32/113
f 15/29/15 113/32/113 109/30/109
vt 0.407165 0.524984
vt 0.408385 0.529325
f 16/31/16 17/33/17 117/34/117
f 16/31/16 117/34/117 113/32/113
vt 0.418722 0.523467
vt 0.418727 0.527977
f 17/33/17 18/35/18 121/36/121
f 17/33/17 121/36/121 117/34/117
vt 0.430283 0.524982
vt 0.429061 0.529327
f 18/35/18 19/37/19 125/38/125
f 18/35/18 125/38/125 121/36/121
vt 0.441138 0.529398
vt 0.438746 0.533248
f 19/37/19 20/39/20 129/40/129
f 19/37/19 129/40/129 125/38/125
vt 0.450501 0.536422
vt 0.447207 0.539536
f 20/39/20 21/41/21 133/42/133
f 20/39/20 133/42/133 129/40/129
vt 0.457763 0.545701
vt 0.453808 0.547818
f 21/41/21 22/43/22 137/44/137
f 21/41/21 137/44/137 133/42/133
vt 0.462338 0.556635
vt 0.458055 0.557670
f 22/43/22 23/45/23 141/46/141
f 22/43/22 141/46/141 137/44/137
vt 0.463873 0.568334
vt 0.459500 0.568343
f 23/45/23 24/47/24 145/48/145
f 23/45/23 145/48/145 141/46/141
f 24/47/24 1/1/1 53/4/53
f 24/47/24 53/4/53 145/48/145
vt 0.445130 0.575422
vt 0.442364 0.582034
vt 0.431320 0.575593
f 50/49/50 54/50/54 26/51/26
vt 0.432722 0.572098
f 50/49/50 26/51/26 25/52/25
vt 0.437979 0.587661
vt 0.429049 0.578623
f 54/50/54 58/53/58 27/54/27
f 54/50/54 27/54/27 26/51/26
vt 0.432360 0.591974
vt 0.425980 0.580903
f 58/53/58 62/55/62 28/56/28
f 58/53/58 28/56/28 27/54/27
vt 0.425773 0.594693
vt 0.422494 0.582350
f 62/55/62 66/57/66 29/58/29
f 62/55/62 29/58/29 28/56/28
vt 0.418715 0.595603
vt 0.418721 0.582875
f 66/57/66 70/59/70 30/60/30
f 66/57/66 30/60/30 29/58/29
vt 0.411669 0.594697
vt 0.414950 0.582350
f 70/59/70 74/61/74 31/62/31
f 70/59/70 31/62/31 30/60/30
vt 0.405090 0.591976
vt 0.411462 0.580905
f 74/61/74 78/63/78 32/64/32
f 74/61/74 32/64/32 31/62/31
vt 0.399462 0.587655
vt 0.408396 0.578622
f 78/63/78 82/65/82 33/66/33
f 78/63/78 33/66/33 32/64/32
vt 0.395079 0.582041
vt 0.406126 0.575594
f 82/65/82 86/67/86 34/68/34
f 82/65/82 34/68/34 33/66/33
vt 0.392324 0.575425
vt 0.404720 0.572100
f 86/67/86 90/69/90 35/70/35
f 86/67/86 35/70/35 34/68/34
vt 0.391386 0.568335
vt 0.404096 0.568349
f 90/69/90 94/71/94 36/72/36
f 90/69/90 36/72/36 35/70/35
vt 0.392331 0.561259
vt 0.404724 0.564589
f 94/71/94 98/73/98 37/74/37
f 94/71/94 37/74/37 36/72/36
vt 0.395074 0.554637
vt 0.406127 0.561097
f 98/73/98 102/75/102 38/76/38
f 98/73/98 38/76/38 37/74/37
vt 0.399473 0.549025
vt 0.408397 0.558073
f 102/75/102 106/77/106 39/78/39
f 102/75/102 39/78/39 38/76/38
vt 0.405086 0.544707
vt 0.411466 0.555784
f 106/77/106 110/79/110 40/80/40
f 106/77/106 40/80/40 39/78/39
vt 0.411670 0.541987
vt 0.414953 0.554341
f 110/79/110 114/81/114 41/82/41
f 110/79/110 41/82/41 40/80/40
vt 0.418725 0.541081
vt 0.418723 0.553822
f 114/81/114 118/83/118 42/84/42
f 114/81/114 42/84/42 41/82/41
vt 0.425775 0.541992
vt 0.422496 0.554340
f 118/83/118 122/85/122 43/86/43
f 118/83/118 43/86/43 42/84/42
vt 0.432359 0.544699
vt 0.425984 0.555784
f 122/85/122 126/87/126 44/88/44
f 122/85/122 44/88/44 43/86/43
vt 0.437977 0.549030
vt 0.429050 0.558072
f 126/87/126 130/89/130 45/90/45
f 126/87/126 45/90/45 44/88/44
vt 0.442372 0.554646
vt 0.431317 0.561096
f 130/89/130 134/91/134 46/92/46
f 130/89/130 46/92/46 45/90/45
vt 0.445125 0.561250
vt 0.432726 0.564588
f 134/91/134 138/93/138 47/94/47
f 134/91/134 47/94/47 46/92/46
vt 0.446052 0.568343
vt 0.433351 0.568348
f 138/93/138 142/95/142 48/96/48
f 138/93/138 48/96/48 47/94/47
f 142/95/142 50/49/50 25/52/25
f 142/95/142 25/52/25 48/96/48
vt 0.418723 0.568251
f 25/52/25 26/51/26 49/97/49
f 26/51/26 27/54/27 49/97/49
f 27/54/27 28/56/28 49/97/49
f 28/56/28 29/58/29 49/97/49
f 29/58/29 30/60/30 49/97/49
f 30/60/30 31/62/31 49/97/49
f 31/62/31 32/64/32 49/97/49
f 32/64/32 33/66/33 49/97/49
f 33/66/33 34/68/34 49/97/49
f 34/68/34 35/70/35 49/97/49
f 35/70/35 36/72/36 49/97/49
f 36/72/36 37/74/37 49/97/49
f 37/74/37 38/76/38 49/97/49
f 38/76/38 39/78/39 49/97/49
f 39/78/39 40/80/40 49/97/49
f 40/80/40 41/82/41 49/97/49
f 41/82/41 42/84/42 49/97/49
f 42/84/42 43/86/43 49/97/49
f 43/86/43 44/88/44 49/97/49
f 44/88/44 45/90/45 49/97/49
f 45/90/45 46/92/46 49/97/49
f 46/92/46 47/94/47 49/97/49
f 47/94/47 48/96/48 49/97/49
f 48/96/48 25/52/25 49/97/49
vt 0.456982 0.578712
vt 0.458369 0.568347
f 53/4/53 52/98/52 144/99/144
f 53/4/53 144/99/144 145/48/145
vt 0.454016 0.577872
vt 0.455272 0.568340
f 52/98/52 51/100/51 143/101/143
f 52/98/52 143/101/143 144/99/144
f 51/100/51 50/49/50 142/95/142
f 51/100/51 142/95/142 143/101/143
vt 0.450297 0.586704
f 50/49/50 51/100/51 55/102/55
f 50/49/50 55/102/55 54/50/54
vt 0.452874 0.588298
f 51/100/51 52/98/52 56/103/56
f 51/100/51 56/103/56 55/102/55
f 52/98/52 53/4/53 57/3/57
f 52/98/52 57/3/57 56/103/56
vt 0.444413 0.594241
f 54/50/54 55/102/55 59/104/59
f 54/50/54 59/104/59 58/53/58
vt 0.446386 0.596389
f 55/102/55 56/103/56 60/105/60
f 55/102/55 60/105/60 59/104/59
f 56/103/56 57/3/57 61/6/61
f 56/103/56 61/6/61 60/105/60
vt 0.436788 0.599880
f 58/53/58 59/104/59 63/106/63
f 58/53/58 63/106/63 62/55/62
vt 0.438238 0.602440
f 59/104/59 60/105/60 64/107/64
f 59/104/59 64/107/64 63/106/63
f 60/105/60 61/6/61 65/8/65
f 60/105/60 65/8/65 64/107/64
vt 0.428083 0.603395
f 62/55/62 63/106/63 67/108/67
f 62/55/62 67/108/67 66/57/66
vt 0.428829 0.606277
f 63/106/63 64/107/64 68/109/68
f 63/106/63 68/109/68 67/108/67
f 64/107/64 65/8/65 69/10/69
f 64/107/64 69/10/69 68/109/68
vt 0.418719 0.604642
f 66/57/66 67/108/67 71/110/71
f 66/57/66 71/110/71 70/59/70
vt 0.418717 0.607634
f 67/108/67 68/109/68 72/111/72
f 67/108/67 72/111/72 71/110/71
f 68/109/68 69/10/69 73/12/73
f 68/109/68 73/12/73 72/111/72
vt 0.409362 0.603394
f 70/59/70 71/110/71 75/112/75
f 70/59/70 75/112/75 74/61/74
vt 0.408615 0.606276
f 71/110/71 72/111/72 76/113/76
f 71/110/71 76/113/76 75/112/75
f 72/111/72 73/12/73 77/14/77
f 72/111/72 77/14/77 76/113/76
vt 0.400653 0.599878
f 74/61/74 75/112/75 79/114/79
f 74/61/74 79/114/79 78/63/78
vt 0.399208 0.602439
f 75/112/75 76/113/76 80/115/80
f 75/112/75 80/115/80 79/114/79
f 76/113/76 77/14/77 81/16/81
f 76/113/76 81/16/81 80/115/80
vt 0.393028 0.594240
f 78/63/78 79/114/79 83/116/83
f 78/63/78 83/116/83 82/65/82
vt 0.391054 0.596383
f 79/114/79 80/115/80 84/117/84
f 79/114/79 84/117/84 83/116/83
f 80/115/80 81/16/81 85/18/85
f 80/115/80 85/18/85 84/117/84
vt 0.387154 0.586701
f 82/65/82 83/116/83 87/118/87
f 82/65/82 87/118/87 86/67/86
vt 0.384573 0.588303
f 83/116/83 84/117/84 88/119/88
f 83/116/83 88/119/88 87/118/87
f 84/117/84 85/18/85 89/20/89
f 84/117/84 89/20/89 88/119/88
vt 0.383424 0.577872
f 86/67/86 87/118/87 91/120/91
f 86/67/86 91/120/91 90/69/90
vt 0.380465 0.578713
f 87/118/87 88/119/88 92/121/92
f 87/118/87 92/121/92 91/120/91
f 88/119/88 89/20/89 93/22/93
f 88/119/88 93/22/93 92/121/92
vt 0.382183 0.568347
f 90/69/90 91/120/91 95/122/95
f 90/69/90 95/122/95 94/71/94
vt 0.379072 0.568342
f 91/120/91 92/121/92 96/123/96
f 91/120/91 96/123/96 95/122/95
f 92/121/92 93/22/93 97/24/97
f 92/121/92 97/24/97 96/123/96
vt 0.383422 0.558805
f 94/71/94 95/122/95 99/124/99
f 94/71/94 99/124/99 98/73/98
vt 0.380471 0.557971
f 95/122/95 96/123/96 100/125/100
f 95/122/95 100/125/100 99/124/99
f 96/123/96 97/24/97 101/26/101
f 96/123/96 101/26/101 100/125/100
vt 0.387166 0.549982
f 98/73/98 99/124/99 103/126/103
f 98/73/98 103/126/103 102/75/102
vt 0.384573 0.548381
f 99/124/99 100/125/100 104/127/104
f 99/124/99 104/127/104 103/126/103
f 100/125/100 101/26/101 105/28/105
f 100/125/100 105/28/105 104/127/104
vt 0.393023 0.542444
f 102/75/102 103/126/103 107/128/107
f 102/75/102 107/128/107 106/77/106
vt 0.391061 0.540305
f 103/126/103 104/127/104 108/129/108
f 103/126/103 108/129/108 107/128/107
f 104/127/104 105/28/105 109/30/109
f 104/127/104 109/30/109 108/129/108
vt 0.400663 0.536805
f 106/77/106 107/128/107 111/130/111
f 106/77/106 111/130/111 110/79/110
vt 0.399213 0.534246
f 107/128/107 108/129/108 112/131/112
f 107/128/107 112/131/112 111/130/111
f 108/129/108 109/30/109 113/32/113
f 108/129/108 113/32/113 112/131/112
vt 0.409364 0.533293
f 110/79/110 111/130/111 115/132/115
f 110/79/110 115/132/115 114/81/114
vt 0.408620 0.530412
f 111/130/111 112/131/112 116/133/116
f 111/130/111 116/133/116 115/132/115
f 112/131/112 113/32/113 117/34/117
f 112/131/112 117/34/117 116/133/116
vt 0.418722 0.532046
f 114/81/114 115/132/115 119/134/119
f 114/81/114 119/134/119 118/83/118
vt 0.418723 0.529056
f 115/132/115 116/133/116 120/135/120
f 115/132/115 120/135/120 119/134/119
f 116/133/116 117/34/117 121/36/121
f 116/133/116 121/36/121 120/135/120
vt 0.428087 0.533287
f 118/83/118 119/134/119 123/136/123
f 118/83/118 123/136/123 122/85/122
vt 0.428829 0.530412
f 119/134/119 120/135/120 124/137/124
f 119/134/119 124/137/124 123/136/123
f 120/135/120 121/36/121 125/38/125
f 120/135/120 125/38/125 124/137/124
vt 0.436785 0.536812
f 122/85/122 123/136/123 127/138/127
f 122/85/122 127/138/127 126/87/126
vt 0.438237 0.534243
f 123/136/123 124/137/124 128/139/128
f 123/136/123 128/139/128 127/138/127
f 124/137/124 125/38/125 129/40/129
f 124/137/124 129/40/129 128/139/128
vt 0.444422 0.542442
f 126/87/126 127/138/127 131/140/131
f 126/87/126 131/140/131 130/89/130
vt 0.446387 0.540305
f 127/138/127 128/139/128 132/141/132
f 127/138/127 132/141/132 131/140/131
f 128/139/128 129/40/129 133/42/133
f 128/139/128 133/42/133 132/141/132
vt 0.450289 0.549980
f 130/89/130 131/140/131 135/142/135
f 130/89/130 135/142/135 134/91/134
vt 0.452873 0.548385
f 131/140/131 132/141/132 136/143/136
f 131/140/131 136/143/136 135/142/135
f 132/141/132 133/42/133 137/44/137
f 132/141/132 137/44/137 136/143/136
vt 0.454016 0.558810
f 134/91/134 135/142/135 139/144/139
f 134/91/134 139/144/139 138/93/138
vt 0.456979 0.557966
f 135/142/135 136/143/136 140/145/140
f 135/142/135 140/145/140 139/144/139
f 136/143/136 137/44/137 141/46/141
f 136/143/136 141/46/141 140/145/140
f 138/93/138 139/144/139 143/101/143
f 138/93/138 143/101/143 142/95/142
f 139/144/139 140/145/140 144/99/144
f 139/144/139 144/99/144 143/101/143
f 140/145/140 141/46/141 145/48/145
f 140/145/140 145/48/145 144/99/144
# 264 faces, 145 coords texture

# End of File
