# Alias Wavefront OBJ File Exported from SketchUp
# with OBJexporter (c) 2010/2011 TIG
# Units = meters

mtllib l1.mtl

g l1_c_laser_2-Color_000
usemtl Color_000
v -0.272415 4.843269 -3.569824
v -0.272415 4.928519 -3.655074
v -0.272415 4.928519 -3.569824
v -0.272415 4.843269 -3.655074
v -0.272415 4.928519 -3.569824
v -0.459915 4.843269 -3.569824
v -0.272415 4.843269 -3.569824
v -0.459915 4.928519 -3.569824
v -0.459915 4.417019 -3.569824
v -0.272415 4.417019 -3.655074
v -0.459915 4.417019 -3.655074
v -0.272415 4.417019 -3.569824
v -0.272415 4.843269 -3.495753
v -0.459915 4.843269 -3.569824
v -0.459915 4.843269 -3.495753
v -0.272415 4.843269 -3.569824
v -0.459915 4.928519 -3.655074
v -0.459915 4.843269 -3.569824
v -0.459915 4.928519 -3.569824
v -0.459915 4.843269 -3.655074
v -0.459915 4.758019 -3.569824
v -0.272415 4.843269 -3.569824
v -0.272415 4.758019 -3.569824
v -0.459915 4.843269 -3.569824
v -0.272415 4.758019 -3.495753
v -0.272415 4.843269 -3.569824
v -0.272415 4.843269 -3.495753
v -0.272415 4.758019 -3.569824
v -0.459915 4.843269 -3.569824
v -0.459915 4.758019 -3.495753
v -0.459915 4.843269 -3.495753
v -0.459915 4.758019 -3.569824
v -0.272415 4.843269 -3.655074
v -0.459915 4.843269 -3.569824
v -0.459915 4.843269 -3.655074
v -0.272415 4.843269 -3.569824
v -0.459915 4.672769 -3.569824
v -0.459915 4.587519 -3.495753
v -0.459915 4.672769 -3.495753
v -0.459915 4.587519 -3.569824
v -0.272415 4.672769 -3.569824
v -0.272415 4.758019 -3.655074
v -0.272415 4.758019 -3.569824
v -0.272415 4.672769 -3.655074
v -0.459915 4.331769 -3.655074
v -0.272415 4.417019 -3.655074
v -0.272415 4.331769 -3.655074
v -0.459915 4.417019 -3.655074
v -0.272415 4.672769 -3.495753
v -0.459915 4.672769 -3.569824
v -0.459915 4.672769 -3.495753
v -0.272415 4.672769 -3.569824
v -0.272415 4.587519 -3.569824
v -0.459915 4.587519 -3.495753
v -0.459915 4.587519 -3.569824
v -0.272415 4.587519 -3.495753
v -0.272415 4.928519 -3.569824
v -0.459915 4.928519 -3.655074
v -0.459915 4.928519 -3.569824
v -0.272415 4.928519 -3.655074
v -0.272415 4.758019 -3.569824
v -0.459915 4.758019 -3.495753
v -0.459915 4.758019 -3.569824
v -0.272415 4.758019 -3.495753
v -0.459915 4.843269 -3.655074
v -0.272415 4.928519 -3.655074
v -0.272415 4.843269 -3.655074
v -0.459915 4.928519 -3.655074
v -0.272415 4.672769 -3.655074
v -0.459915 4.672769 -3.569824
v -0.459915 4.672769 -3.655074
v -0.272415 4.672769 -3.569824
v -0.272415 4.758019 -3.569824
v -0.459915 4.758019 -3.655074
v -0.459915 4.758019 -3.569824
v -0.272415 4.758019 -3.655074
v -0.459915 4.672769 -3.655074
v -0.272415 4.758019 -3.655074
v -0.272415 4.672769 -3.655074
v -0.459915 4.758019 -3.655074
v -0.272415 4.758019 -3.569824
v -0.459915 4.672769 -3.569824
v -0.272415 4.672769 -3.569824
v -0.459915 4.758019 -3.569824
v -0.459915 4.587519 -3.655074
v -0.459915 4.502269 -3.569824
v -0.459915 4.587519 -3.569824
v -0.459915 4.502269 -3.655074
v -0.459915 4.758019 -3.655074
v -0.459915 4.672769 -3.569824
v -0.459915 4.758019 -3.569824
v -0.459915 4.672769 -3.655074
v -0.272415 4.843269 -3.495753
v -0.459915 4.758019 -3.495753
v -0.272415 4.758019 -3.495753
v -0.459915 4.843269 -3.495753
v -0.272415 4.502269 -3.569824
v -0.272415 4.587519 -3.655074
v -0.272415 4.587519 -3.569824
v -0.272415 4.502269 -3.655074
v -0.272415 4.246519 -3.495753
v -0.272415 4.331769 -3.569824
v -0.272415 4.331769 -3.495753
v -0.272415 4.246519 -3.569824
v -0.459915 4.417019 -3.655074
v -0.459915 4.331769 -3.569824
v -0.459915 4.417019 -3.569824
v -0.459915 4.331769 -3.655074
v -0.272415 4.672769 -3.495753
v -0.459915 4.587519 -3.495753
v -0.272415 4.587519 -3.495753
v -0.459915 4.672769 -3.495753
v -0.459915 4.587519 -3.569824
v -0.272415 4.672769 -3.569824
v -0.272415 4.587519 -3.569824
v -0.459915 4.672769 -3.569824
v -0.272415 4.587519 -3.495753
v -0.272415 4.672769 -3.569824
v -0.272415 4.672769 -3.495753
v -0.272415 4.587519 -3.569824
v -0.272415 4.331769 -3.569824
v -0.272415 4.417019 -3.655074
v -0.272415 4.417019 -3.569824
v -0.272415 4.331769 -3.655074
v -0.272415 4.331769 -3.495753
v -0.459915 4.246519 -3.495753
v -0.272415 4.246519 -3.495753
v -0.459915 4.331769 -3.495753
v -0.272415 4.502269 -3.495753
v -0.459915 4.502269 -3.569824
v -0.459915 4.502269 -3.495753
v -0.272415 4.502269 -3.569824
v -0.272415 4.417019 -3.495753
v -0.272415 4.502269 -3.569824
v -0.272415 4.502269 -3.495753
v -0.272415 4.417019 -3.569824
v -0.272415 4.417019 -3.569824
v -0.459915 4.417019 -3.495753
v -0.459915 4.417019 -3.569824
v -0.272415 4.417019 -3.495753
v -0.459915 4.502269 -3.655074
v -0.272415 4.587519 -3.655074
v -0.272415 4.502269 -3.655074
v -0.459915 4.587519 -3.655074
v -0.272415 4.331769 -3.655074
v -0.459915 4.331769 -3.569824
v -0.459915 4.331769 -3.655074
v -0.272415 4.331769 -3.569824
v -0.272415 4.331769 -3.495753
v -0.459915 4.331769 -3.569824
v -0.459915 4.331769 -3.495753
v -0.272415 4.331769 -3.569824
v -0.459915 4.587519 -3.569824
v -0.272415 4.587519 -3.655074
v -0.459915 4.587519 -3.655074
v -0.272415 4.587519 -3.569824
v -0.272415 4.502269 -3.495753
v -0.459915 4.417019 -3.495753
v -0.272415 4.417019 -3.495753
v -0.459915 4.502269 -3.495753
v -0.272415 4.502269 -3.655074
v -0.459915 4.502269 -3.569824
v -0.459915 4.502269 -3.655074
v -0.272415 4.502269 -3.569824
v -0.459915 4.417019 -3.569824
v -0.272415 4.502269 -3.569824
v -0.272415 4.417019 -3.569824
v -0.459915 4.502269 -3.569824
v -0.272415 4.246519 -3.569824
v -0.459915 4.246519 -3.495753
v -0.459915 4.246519 -3.569824
v -0.272415 4.246519 -3.495753
v -0.459915 4.331769 -3.569824
v -0.459915 4.246519 -3.495753
v -0.459915 4.331769 -3.495753
v -0.459915 4.246519 -3.569824
v -0.272415 4.417019 -3.569824
v -0.459915 4.331769 -3.569824
v -0.272415 4.331769 -3.569824
v -0.459915 4.417019 -3.569824
v -0.272415 4.587519 -3.569824
v -0.459915 4.502269 -3.569824
v -0.272415 4.502269 -3.569824
v -0.459915 4.587519 -3.569824
v -0.459915 4.246519 -3.569824
v -0.272415 4.331769 -3.569824
v -0.272415 4.246519 -3.569824
v -0.459915 4.331769 -3.569824
v -0.459915 4.502269 -3.569824
v -0.459915 4.417019 -3.495753
v -0.459915 4.502269 -3.495753
v -0.459915 4.417019 -3.569824
vn 1.000000 -0.000000 0.000000
vn 1.000000 -0.000000 0.000000
vn 1.000000 -0.000000 0.000000
vn 1.000000 -0.000000 0.000000
vn -0.000000 -0.000000 1.000000
vn -0.000000 -0.000000 1.000000
vn -0.000000 -0.000000 1.000000
vn -0.000000 -0.000000 1.000000
vn 0.000000 1.000000 -0.000000
vn 0.000000 1.000000 -0.000000
vn 0.000000 1.000000 -0.000000
vn 0.000000 1.000000 -0.000000
vn 0.000000 1.000000 -0.000000
vn 0.000000 1.000000 -0.000000
vn 0.000000 1.000000 -0.000000
vn 0.000000 1.000000 -0.000000
vn -1.000000 0.000000 -0.000000
vn -1.000000 0.000000 -0.000000
vn -1.000000 0.000000 -0.000000
vn -1.000000 0.000000 -0.000000
vn -0.000000 0.000000 -1.000000
vn -0.000000 0.000000 -1.000000
vn -0.000000 0.000000 -1.000000
vn -0.000000 0.000000 -1.000000
vn 1.000000 -0.000000 0.000000
vn 1.000000 -0.000000 0.000000
vn 1.000000 -0.000000 0.000000
vn 1.000000 -0.000000 0.000000
vn -1.000000 0.000000 0.000000
vn -1.000000 0.000000 0.000000
vn -1.000000 0.000000 0.000000
vn -1.000000 0.000000 0.000000
vn -0.000000 -1.000000 -0.000000
vn -0.000000 -1.000000 -0.000000
vn -0.000000 -1.000000 -0.000000
vn -0.000000 -1.000000 -0.000000
vn -1.000000 0.000000 -0.000000
vn -1.000000 0.000000 -0.000000
vn -1.000000 0.000000 -0.000000
vn -1.000000 0.000000 -0.000000
vn 1.000000 -0.000000 -0.000000
vn 1.000000 -0.000000 -0.000000
vn 1.000000 -0.000000 -0.000000
vn 1.000000 -0.000000 -0.000000
vn 0.000000 0.000000 -1.000000
vn 0.000000 0.000000 -1.000000
vn 0.000000 0.000000 -1.000000
vn 0.000000 0.000000 -1.000000
vn 0.000000 1.000000 -0.000000
vn 0.000000 1.000000 -0.000000
vn 0.000000 1.000000 -0.000000
vn 0.000000 1.000000 -0.000000
vn -0.000000 -1.000000 0.000000
vn -0.000000 -1.000000 0.000000
vn -0.000000 -1.000000 0.000000
vn -0.000000 -1.000000 0.000000
vn 0.000000 1.000000 0.000000
vn 0.000000 1.000000 0.000000
vn 0.000000 1.000000 0.000000
vn 0.000000 1.000000 0.000000
vn -0.000000 -1.000000 0.000000
vn -0.000000 -1.000000 0.000000
vn -0.000000 -1.000000 0.000000
vn -0.000000 -1.000000 0.000000
vn 0.000000 0.000000 -1.000000
vn 0.000000 0.000000 -1.000000
vn 0.000000 0.000000 -1.000000
vn 0.000000 0.000000 -1.000000
vn -0.000000 -1.000000 -0.000000
vn -0.000000 -1.000000 -0.000000
vn -0.000000 -1.000000 -0.000000
vn -0.000000 -1.000000 -0.000000
vn 0.000000 1.000000 0.000000
vn 0.000000 1.000000 0.000000
vn 0.000000 1.000000 0.000000
vn 0.000000 1.000000 0.000000
vn 0.000000 0.000000 -1.000000
vn 0.000000 0.000000 -1.000000
vn 0.000000 0.000000 -1.000000
vn 0.000000 0.000000 -1.000000
vn 0.000000 -0.000000 1.000000
vn 0.000000 -0.000000 1.000000
vn 0.000000 -0.000000 1.000000
vn 0.000000 -0.000000 1.000000
vn -1.000000 0.000000 0.000000
vn -1.000000 0.000000 0.000000
vn -1.000000 0.000000 0.000000
vn -1.000000 0.000000 0.000000
vn -1.000000 0.000000 0.000000
vn -1.000000 0.000000 0.000000
vn -1.000000 0.000000 0.000000
vn -1.000000 0.000000 0.000000
vn -0.000000 -0.000000 1.000000
vn -0.000000 -0.000000 1.000000
vn -0.000000 -0.000000 1.000000
vn -0.000000 -0.000000 1.000000
vn 1.000000 -0.000000 0.000000
vn 1.000000 -0.000000 0.000000
vn 1.000000 -0.000000 0.000000
vn 1.000000 -0.000000 0.000000
vn 1.000000 -0.000000 -0.000000
vn 1.000000 -0.000000 -0.000000
vn 1.000000 -0.000000 -0.000000
vn 1.000000 -0.000000 -0.000000
vn -1.000000 0.000000 0.000000
vn -1.000000 0.000000 0.000000
vn -1.000000 0.000000 0.000000
vn -1.000000 0.000000 0.000000
vn -0.000000 -0.000000 1.000000
vn -0.000000 -0.000000 1.000000
vn -0.000000 -0.000000 1.000000
vn -0.000000 -0.000000 1.000000
vn -0.000000 0.000000 -1.000000
vn -0.000000 0.000000 -1.000000
vn -0.000000 0.000000 -1.000000
vn -0.000000 0.000000 -1.000000
vn 1.000000 -0.000000 0.000000
vn 1.000000 -0.000000 0.000000
vn 1.000000 -0.000000 0.000000
vn 1.000000 -0.000000 0.000000
vn 1.000000 -0.000000 -0.000000
vn 1.000000 -0.000000 -0.000000
vn 1.000000 -0.000000 -0.000000
vn 1.000000 -0.000000 -0.000000
vn -0.000000 -0.000000 1.000000
vn -0.000000 -0.000000 1.000000
vn -0.000000 -0.000000 1.000000
vn -0.000000 -0.000000 1.000000
vn 0.000000 1.000000 -0.000000
vn 0.000000 1.000000 -0.000000
vn 0.000000 1.000000 -0.000000
vn 0.000000 1.000000 -0.000000
vn 1.000000 -0.000000 0.000000
vn 1.000000 -0.000000 0.000000
vn 1.000000 -0.000000 0.000000
vn 1.000000 -0.000000 0.000000
vn -0.000000 -1.000000 0.000000
vn -0.000000 -1.000000 0.000000
vn -0.000000 -1.000000 0.000000
vn -0.000000 -1.000000 0.000000
vn 0.000000 0.000000 -1.000000
vn 0.000000 0.000000 -1.000000
vn 0.000000 0.000000 -1.000000
vn 0.000000 0.000000 -1.000000
vn -0.000000 -1.000000 -0.000000
vn -0.000000 -1.000000 -0.000000
vn -0.000000 -1.000000 -0.000000
vn -0.000000 -1.000000 -0.000000
vn 0.000000 1.000000 -0.000000
vn 0.000000 1.000000 -0.000000
vn 0.000000 1.000000 -0.000000
vn 0.000000 1.000000 -0.000000
vn 0.000000 1.000000 -0.000000
vn 0.000000 1.000000 -0.000000
vn 0.000000 1.000000 -0.000000
vn 0.000000 1.000000 -0.000000
vn -0.000000 -0.000000 1.000000
vn -0.000000 -0.000000 1.000000
vn -0.000000 -0.000000 1.000000
vn -0.000000 -0.000000 1.000000
vn -0.000000 -1.000000 -0.000000
vn -0.000000 -1.000000 -0.000000
vn -0.000000 -1.000000 -0.000000
vn -0.000000 -1.000000 -0.000000
vn -0.000000 0.000000 -1.000000
vn -0.000000 0.000000 -1.000000
vn -0.000000 0.000000 -1.000000
vn -0.000000 0.000000 -1.000000
vn -0.000000 -1.000000 0.000000
vn -0.000000 -1.000000 0.000000
vn -0.000000 -1.000000 0.000000
vn -0.000000 -1.000000 0.000000
vn -1.000000 0.000000 -0.000000
vn -1.000000 0.000000 -0.000000
vn -1.000000 0.000000 -0.000000
vn -1.000000 0.000000 -0.000000
vn 0.000000 -0.000000 1.000000
vn 0.000000 -0.000000 1.000000
vn 0.000000 -0.000000 1.000000
vn 0.000000 -0.000000 1.000000
vn 0.000000 -0.000000 1.000000
vn 0.000000 -0.000000 1.000000
vn 0.000000 -0.000000 1.000000
vn 0.000000 -0.000000 1.000000
vn 0.000000 0.000000 -1.000000
vn 0.000000 0.000000 -1.000000
vn 0.000000 0.000000 -1.000000
vn 0.000000 0.000000 -1.000000
vn -1.000000 0.000000 -0.000000
vn -1.000000 0.000000 -0.000000
vn -1.000000 0.000000 -0.000000
vn -1.000000 0.000000 -0.000000
vt 0.583237 4.698819
vt 1.254497 5.370079
vt 0.583237 5.370079
vt 1.254497 4.698819
vt 0.738189 5.370079
vt 0.000000 4.698819
vt 0.738189 4.698819
vt 0.000000 5.370079
vt -0.000000 0.583237
vt 0.738189 1.254497
vt -0.000000 1.254497
vt 0.738189 0.583237
vt 0.738189 -0.000000
vt -0.000000 0.583237
vt -0.000000 -0.000000
vt 0.738189 0.583237
vt -1.254497 5.370079
vt -0.583237 4.698819
vt -0.583237 5.370079
vt -1.254497 4.698819
vt -0.000000 4.027559
vt -0.738189 4.698819
vt -0.738189 4.027559
vt -0.000000 4.698819
vt 0.000000 4.027559
vt 0.583237 4.698819
vt 0.000000 4.698819
vt 0.583237 4.027559
vt -0.583237 4.698819
vt -0.000000 4.027559
vt 0.000000 4.698819
vt -0.583237 4.027559
vt -0.738189 1.254497
vt 0.000000 0.583237
vt 0.000000 1.254497
vt -0.738189 0.583237
vt -0.583237 3.356299
vt -0.000000 2.685039
vt -0.000000 3.356299
vt -0.583237 2.685039
vt 0.583237 3.356299
vt 1.254497 4.027559
vt 0.583237 4.027559
vt 1.254497 3.356299
vt -0.000000 0.671260
vt -0.738189 1.342520
vt -0.738189 0.671260
vt -0.000000 1.342520
vt 0.738189 -0.000000
vt -0.000000 0.583237
vt -0.000000 -0.000000
vt 0.738189 0.583237
vt -0.738189 0.583237
vt 0.000000 -0.000000
vt 0.000000 0.583237
vt -0.738189 -0.000000
vt 0.738189 0.583237
vt -0.000000 1.254497
vt -0.000000 0.583237
vt 0.738189 1.254497
vt -0.738189 0.583237
vt 0.000000 -0.000000
vt 0.000000 0.583237
vt -0.738189 -0.000000
vt -0.000000 4.698819
vt -0.738189 5.370079
vt -0.738189 4.698819
vt -0.000000 5.370079
vt -0.738189 1.254497
vt 0.000000 0.583237
vt 0.000000 1.254497
vt -0.738189 0.583237
vt 0.738189 0.583237
vt -0.000000 1.254497
vt -0.000000 0.583237
vt 0.738189 1.254497
vt -0.000000 3.356299
vt -0.738189 4.027559
vt -0.738189 3.356299
vt -0.000000 4.027559
vt 0.738189 4.027559
vt 0.000000 3.356299
vt 0.738189 3.356299
vt 0.000000 4.027559
vt -1.254497 2.685039
vt -0.583237 2.013780
vt -0.583237 2.685039
vt -1.254497 2.013780
vt -1.254497 4.027559
vt -0.583237 3.356299
vt -0.583237 4.027559
vt -1.254497 3.356299
vt 0.738189 4.698819
vt 0.000000 4.027559
vt 0.738189 4.027559
vt 0.000000 4.698819
vt 0.583237 2.013780
vt 1.254497 2.685039
vt 0.583237 2.685039
vt 1.254497 2.013780
vt 0.000000 0.000000
vt 0.583237 0.671260
vt 0.000000 0.671260
vt 0.583237 0.000000
vt -1.254497 1.342520
vt -0.583237 0.671260
vt -0.583237 1.342520
vt -1.254497 0.671260
vt 0.738189 3.356299
vt 0.000000 2.685039
vt 0.738189 2.685039
vt 0.000000 3.356299
vt -0.000000 2.685039
vt -0.738189 3.356299
vt -0.738189 2.685039
vt -0.000000 3.356299
vt 0.000000 2.685039
vt 0.583237 3.356299
vt 0.000000 3.356299
vt 0.583237 2.685039
vt 0.583237 0.671260
vt 1.254497 1.342520
vt 0.583237 1.342520
vt 1.254497 0.671260
vt 0.738189 0.671260
vt -0.000000 0.000000
vt 0.738189 0.000000
vt 0.000000 0.671260
vt 0.738189 -0.000000
vt -0.000000 0.583237
vt -0.000000 -0.000000
vt 0.738189 0.583237
vt 0.000000 1.342520
vt 0.583237 2.013780
vt 0.000000 2.013780
vt 0.583237 1.342520
vt -0.738189 0.583237
vt 0.000000 -0.000000
vt 0.000000 0.583237
vt -0.738189 -0.000000
vt -0.000000 2.013780
vt -0.738189 2.685039
vt -0.738189 2.013780
vt -0.000000 2.685039
vt -0.738189 1.254497
vt 0.000000 0.583237
vt 0.000000 1.254497
vt -0.738189 0.583237
vt 0.738189 -0.000000
vt -0.000000 0.583237
vt -0.000000 -0.000000
vt 0.738189 0.583237
vt -0.000000 0.583237
vt 0.738189 1.254497
vt -0.000000 1.254497
vt 0.738189 0.583237
vt 0.738189 2.013780
vt 0.000000 1.342520
vt 0.738189 1.342520
vt 0.000000 2.013780
vt -0.738189 1.254497
vt 0.000000 0.583237
vt 0.000000 1.254497
vt -0.738189 0.583237
vt -0.000000 1.342520
vt -0.738189 2.013780
vt -0.738189 1.342520
vt -0.000000 2.013780
vt -0.738189 0.583237
vt 0.000000 0.000000
vt 0.000000 0.583237
vt -0.738189 0.000000
vt -0.583237 0.671260
vt -0.000000 0.000000
vt -0.000000 0.671260
vt -0.583237 0.000000
vt 0.738189 1.342520
vt 0.000000 0.671260
vt 0.738189 0.671260
vt 0.000000 1.342520
vt 0.738189 2.685039
vt 0.000000 2.013780
vt 0.738189 2.013780
vt 0.000000 2.685039
vt 0.000000 0.000000
vt -0.738189 0.671260
vt -0.738189 -0.000000
vt -0.000000 0.671260
vt -0.583237 2.013780
vt -0.000000 1.342520
vt -0.000000 2.013780
vt -0.583237 1.342520
f 1/1/1 2/2/2 3/3/3
f 2/2/2 1/1/1 4/4/4
f 5/5/5 6/6/6 7/7/7
f 6/6/6 5/5/5 8/8/8
f 9/9/9 10/10/10 11/11/11
f 10/10/10 9/9/9 12/12/12
f 13/13/13 14/14/14 15/15/15
f 14/14/14 13/13/13 16/16/16
f 17/17/17 18/18/18 19/19/19
f 18/18/18 17/17/17 20/20/20
f 21/21/21 22/22/22 23/23/23
f 22/22/22 21/21/21 24/24/24
f 25/25/25 26/26/26 27/27/27
f 26/26/26 25/25/25 28/28/28
f 29/29/29 30/30/30 31/31/31
f 30/30/30 29/29/29 32/32/32
f 33/33/33 34/34/34 35/35/35
f 34/34/34 33/33/33 36/36/36
f 37/37/37 38/38/38 39/39/39
f 38/38/38 37/37/37 40/40/40
f 41/41/41 42/42/42 43/43/43
f 42/42/42 41/41/41 44/44/44
f 45/45/45 46/46/46 47/47/47
f 46/46/46 45/45/45 48/48/48
f 49/49/49 50/50/50 51/51/51
f 50/50/50 49/49/49 52/52/52
f 53/53/53 54/54/54 55/55/55
f 54/54/54 53/53/53 56/56/56
f 57/57/57 58/58/58 59/59/59
f 58/58/58 57/57/57 60/60/60
f 61/61/61 62/62/62 63/63/63
f 62/62/62 61/61/61 64/64/64
f 65/65/65 66/66/66 67/67/67
f 66/66/66 65/65/65 68/68/68
f 69/69/69 70/70/70 71/71/71
f 70/70/70 69/69/69 72/72/72
f 73/73/73 74/74/74 75/75/75
f 74/74/74 73/73/73 76/76/76
f 77/77/77 78/78/78 79/79/79
f 78/78/78 77/77/77 80/80/80
f 81/81/81 82/82/82 83/83/83
f 82/82/82 81/81/81 84/84/84
f 85/85/85 86/86/86 87/87/87
f 86/86/86 85/85/85 88/88/88
f 89/89/89 90/90/90 91/91/91
f 90/90/90 89/89/89 92/92/92
f 93/93/93 94/94/94 95/95/95
f 94/94/94 93/93/93 96/96/96
f 97/97/97 98/98/98 99/99/99
f 98/98/98 97/97/97 100/100/100
f 101/101/101 102/102/102 103/103/103
f 102/102/102 101/101/101 104/104/104
f 105/105/105 106/106/106 107/107/107
f 106/106/106 105/105/105 108/108/108
f 109/109/109 110/110/110 111/111/111
f 110/110/110 109/109/109 112/112/112
f 113/113/113 114/114/114 115/115/115
f 114/114/114 113/113/113 116/116/116
f 117/117/117 118/118/118 119/119/119
f 118/118/118 117/117/117 120/120/120
f 121/121/121 122/122/122 123/123/123
f 122/122/122 121/121/121 124/124/124
f 125/125/125 126/126/126 127/127/127
f 126/126/126 125/125/125 128/128/128
f 129/129/129 130/130/130 131/131/131
f 130/130/130 129/129/129 132/132/132
f 133/133/133 134/134/134 135/135/135
f 134/134/134 133/133/133 136/136/136
f 137/137/137 138/138/138 139/139/139
f 138/138/138 137/137/137 140/140/140
f 141/141/141 142/142/142 143/143/143
f 142/142/142 141/141/141 144/144/144
f 145/145/145 146/146/146 147/147/147
f 146/146/146 145/145/145 148/148/148
f 149/149/149 150/150/150 151/151/151
f 150/150/150 149/149/149 152/152/152
f 153/153/153 154/154/154 155/155/155
f 154/154/154 153/153/153 156/156/156
f 157/157/157 158/158/158 159/159/159
f 158/158/158 157/157/157 160/160/160
f 161/161/161 162/162/162 163/163/163
f 162/162/162 161/161/161 164/164/164
f 165/165/165 166/166/166 167/167/167
f 166/166/166 165/165/165 168/168/168
f 169/169/169 170/170/170 171/171/171
f 170/170/170 169/169/169 172/172/172
f 173/173/173 174/174/174 175/175/175
f 174/174/174 173/173/173 176/176/176
f 177/177/177 178/178/178 179/179/179
f 178/178/178 177/177/177 180/180/180
f 181/181/181 182/182/182 183/183/183
f 182/182/182 181/181/181 184/184/184
f 185/185/185 186/186/186 187/187/187
f 186/186/186 185/185/185 188/188/188
f 189/189/189 190/190/190 191/191/191
f 190/190/190 189/189/189 192/192/192

