# Alias Wavefront OBJ File Exported from SketchUp
# with OBJexporter (c) 2010/2011 TIG
# Units = meters

mtllib l2.mtl

g l2_c_laser-Color_I01
usemtl Color_I01
v -0.237665 4.363800 -7.536094
v -0.138665 3.750000 -7.536094
v -0.237665 3.750000 -7.536094
v -0.138665 4.363800 -7.536094
v -0.138665 4.363800 -7.423894
v -0.237665 3.750000 -7.423894
v -0.138665 3.750000 -7.423894
v -0.237665 4.363800 -7.423894
v -0.138665 3.750000 -7.536094
v -0.237665 3.750000 -7.423894
v -0.237665 3.750000 -7.536094
v -0.138665 3.750000 -7.423894
v -0.138665 3.750000 -7.536094
v -0.138665 4.363800 -7.423894
v -0.138665 3.750000 -7.423894
v -0.138665 4.363800 -7.536094
v -0.138665 4.363800 -7.423894
v -0.237665 4.363800 -7.536094
v -0.237665 4.363800 -7.423894
v -0.138665 4.363800 -7.536094
v -0.237665 4.363800 -7.536094
v -0.237665 3.750000 -7.423894
v -0.237665 4.363800 -7.423894
v -0.237665 3.750000 -7.536094
vn 0.000000 0.000000 -1.000000
vn 0.000000 0.000000 -1.000000
vn 0.000000 0.000000 -1.000000
vn 0.000000 0.000000 -1.000000
vn 0.000000 0.000000 1.000000
vn 0.000000 0.000000 1.000000
vn 0.000000 0.000000 1.000000
vn 0.000000 0.000000 1.000000
vn 0.000000 -1.000000 0.000000
vn 0.000000 -1.000000 0.000000
vn 0.000000 -1.000000 0.000000
vn 0.000000 -1.000000 0.000000
vn 1.000000 0.000000 0.000000
vn 1.000000 0.000000 0.000000
vn 1.000000 0.000000 0.000000
vn 1.000000 0.000000 0.000000
vn 0.000000 1.000000 0.000000
vn 0.000000 1.000000 0.000000
vn 0.000000 1.000000 0.000000
vn 0.000000 1.000000 0.000000
vn -1.000000 0.000000 0.000000
vn -1.000000 0.000000 0.000000
vn -1.000000 0.000000 0.000000
vn -1.000000 0.000000 0.000000
vt 0.000000 5.905512
vt -1.181102 0.000000
vt 0.000000 0.000000
vt -1.181102 5.905512
vt 1.181102 5.905512
vt 0.000000 0.000000
vt 1.181102 0.000000
vt 0.000000 5.905512
vt -1.181102 1.968504
vt 0.000000 0.000000
vt 0.000000 1.968504
vt -1.181102 0.000000
vt 1.968504 0.000000
vt 0.000000 5.905512
vt 0.000000 0.000000
vt 1.968504 5.905512
vt 1.181102 0.000000
vt 0.000000 1.968504
vt 0.000000 0.000000
vt 1.181102 1.968504
vt -1.968504 5.905512
vt 0.000000 0.000000
vt 0.000000 5.905512
vt -1.968504 0.000000
f 1/1/1 2/2/2 3/3/3
f 2/2/2 1/1/1 4/4/4
f 5/5/5 6/6/6 7/7/7
f 6/6/6 5/5/5 8/8/8
f 9/9/9 10/10/10 11/11/11
f 10/10/10 9/9/9 12/12/12
f 13/13/13 14/14/14 15/15/15
f 14/14/14 13/13/13 16/16/16
f 17/17/17 18/18/18 19/19/19
f 18/18/18 17/17/17 20/20/20
f 21/21/21 22/22/22 23/23/23
f 22/22/22 21/21/21 24/24/24

