####
#
# OBJ File Generated by Meshlab
#
####
# Object led.obj
#
# Vertices: 37
# Faces: 60
#
####
mtllib ./led.obj.mtl

vn 2.382417 0.175204 -1.663962
v 0.000491 0.002085 0.095958 0.752941 0.752941 0.752941
vn 1.226559 0.277346 -2.622685
v 0.000284 0.002107 0.095751 0.752941 0.752941 0.752941
vn -0.258934 0.305132 -2.881575
v 0.000000 0.002114 0.095675 0.752941 0.752941 0.752941
vn -1.676316 0.249561 -2.363796
v -0.000284 0.002107 0.095751 0.752941 0.752941 0.752941
vn -2.638760 0.128634 -1.223019
v -0.000491 0.002085 0.095958 0.752941 0.752941 0.752941
vn -2.895180 -0.027359 0.260408
v -0.000568 0.002055 0.096240 0.752941 0.752941 0.752941
vn -2.382189 -0.174452 1.664168
v -0.000491 0.002026 0.096522 0.752941 0.752941 0.752941
vn -1.223411 -0.274791 2.623899
v -0.000284 0.002004 0.096729 0.752941 0.752941 0.752941
vn 0.257427 -0.301866 2.883134
v 0.000000 0.001996 0.096804 0.752941 0.752941 0.752941
vn 1.674543 -0.247717 2.364663
v 0.000284 0.002004 0.096729 0.752941 0.752941 0.752941
vn 2.638704 -0.128261 1.222909
v 0.000491 0.002026 0.096522 0.752941 0.752941 0.752941
vn 2.895142 0.027352 -0.260834
v 0.000568 0.002055 0.096240 0.752941 0.752941 0.752941
vn 1.972142 2.086131 -0.698190
v 0.000433 0.002944 0.096082 0.752941 0.752941 0.752941
vn 1.277019 2.171577 -1.533542
v 0.000250 0.002968 0.095900 0.752941 0.752941 0.752941
vn 0.202738 2.218304 -1.925929
v 0.000000 0.002979 0.095834 0.752941 0.752941 0.752941
vn -0.942616 2.194941 -1.729736
v -0.000250 0.002968 0.095900 0.752941 0.752941 0.752941
vn -1.791782 2.117172 -1.017769
v -0.000433 0.002944 0.096082 0.752941 0.752941 0.752941
vn -2.152323 2.013315 0.015308
v -0.000500 0.002919 0.096331 0.752941 0.752941 0.752941
vn -1.971631 1.895440 1.119254
v -0.000433 0.002891 0.096579 0.752941 0.752941 0.752941
vn -1.278100 1.805601 1.950523
v -0.000250 0.002877 0.096762 0.752941 0.752941 0.752941
vn -0.204131 1.763222 2.348622
v 0.000000 0.002875 0.096829 0.752941 0.752941 0.752941
vn 0.945246 1.784412 2.149573
v 0.000250 0.002877 0.096762 0.752941 0.752941 0.752941
vn 1.791293 1.861116 1.435364
v 0.000433 0.002891 0.096579 0.752941 0.752941 0.752941
vn 2.152146 1.971540 0.409226
v 0.000500 0.002919 0.096331 0.752941 0.752941 0.752941
vn 0.000000 0.000001 0.000000
v 0.000000 0.002927 0.096331 0.752941 0.752941 0.752941
vn -4.429996 1.732854 2.658273
v -0.000491 0.002815 0.096605 0.752941 0.752941 0.752941
vn -5.047287 1.998892 0.148391
v -0.000568 0.002847 0.096323 0.752941 0.752941 0.752941
vn -4.354558 2.261335 -2.362152
v -0.000491 0.002875 0.096041 0.752941 0.752941 0.752941
vn -2.503578 2.448923 -4.156227
v -0.000284 0.002902 0.095835 0.752941 0.752941 0.752941
vn 0.056196 2.523436 -4.807505
v 0.000000 0.002915 0.095760 0.752941 0.752941 0.752941
vn 2.618932 2.444501 -4.093531
v 0.000284 0.002902 0.095835 0.752941 0.752941 0.752941
vn 4.430542 2.245806 -2.240788
v 0.000491 0.002875 0.096041 0.752941 0.752941 0.752941
vn 5.047503 1.985956 0.275715
v 0.000568 0.002847 0.096323 0.752941 0.752941 0.752941
vn 4.353819 1.720988 2.783422
v 0.000491 0.002815 0.096605 0.752941 0.752941 0.752941
vn 2.501512 1.530810 4.574422
v 0.000284 0.002799 0.096812 0.752941 0.752941 0.752941
vn -0.053296 1.461356 5.231756
v 0.000000 0.002796 0.096888 0.752941 0.752941 0.752941
vn -2.619789 1.536694 4.514236
v -0.000284 0.002799 0.096812 0.752941 0.752941 0.752941
# 37 vertices, 0 vertices normals


usemtl material_0
vt 0.438303 0.694335
vt 0.434274 0.698353
vt 0.432245 0.694839
f 1/1/1 2/2/2 31/3/31
vt 0.434787 0.692305
f 1/1/1 31/3/31 32/4/32
vt 0.428775 0.699814
vt 0.428779 0.695763
f 2/2/2 3/5/3 30/6/30
f 2/2/2 30/6/30 31/3/31
vt 0.423287 0.698353
vt 0.425313 0.694839
f 3/5/3 4/7/4 29/8/29
f 3/5/3 29/8/29 30/6/30
vt 0.419262 0.694338
vt 0.422771 0.692305
f 4/7/4 5/9/5 28/10/28
f 4/7/4 28/10/28 29/8/29
vt 0.417786 0.688833
vt 0.421844 0.688836
f 5/9/5 6/11/6 27/12/27
f 5/9/5 27/12/27 28/10/28
vt 0.419258 0.683336
vt 0.422771 0.685368
f 6/11/6 7/13/7 26/14/26
f 6/11/6 26/14/26 27/12/27
vt 0.423273 0.679324
vt 0.425313 0.682834
f 7/13/7 8/15/8 37/16/37
f 7/13/7 37/16/37 26/14/26
vt 0.428777 0.677856
vt 0.428779 0.681910
f 8/15/8 9/17/9 36/18/36
f 8/15/8 36/18/36 37/16/37
vt 0.434283 0.679323
vt 0.432244 0.682834
f 9/17/9 10/19/10 35/20/35
f 9/17/9 35/20/35 36/18/36
vt 0.438299 0.683342
vt 0.434786 0.685368
f 10/19/10 11/21/11 34/22/34
f 10/19/10 34/22/34 35/20/35
vt 0.439770 0.688838
vt 0.435714 0.688836
f 11/21/11 12/23/12 33/24/33
f 11/21/11 33/24/33 34/22/34
f 12/23/12 1/1/1 32/4/32
f 12/23/12 32/4/32 33/24/33
vt 0.433877 0.691761
vt 0.431722 0.693915
vt 0.428779 0.688818
f 13/25/13 14/26/14 25/27/25
vt 0.428779 0.694704
f 14/26/14 15/28/15 25/27/25
vt 0.425836 0.693915
f 15/28/15 16/29/16 25/27/25
vt 0.423681 0.691761
f 16/29/16 17/30/17 25/27/25
vt 0.422892 0.688818
f 17/30/17 18/31/18 25/27/25
vt 0.423681 0.685874
f 18/31/18 19/32/19 25/27/25
vt 0.425836 0.683720
f 19/32/19 20/33/20 25/27/25
vt 0.428779 0.682931
f 20/33/20 21/34/21 25/27/25
vt 0.431722 0.683720
f 21/34/21 22/35/22 25/27/25
vt 0.433877 0.685874
f 22/35/22 23/36/23 25/27/25
vt 0.434666 0.688818
f 23/36/23 24/37/24 25/27/25
f 24/37/24 13/25/13 25/27/25
f 27/12/27 26/14/26 19/32/19
f 27/12/27 19/32/19 18/31/18
f 28/10/28 27/12/27 18/31/18
f 28/10/28 18/31/18 17/30/17
f 29/8/29 28/10/28 17/30/17
f 29/8/29 17/30/17 16/29/16
f 30/6/30 29/8/29 16/29/16
f 30/6/30 16/29/16 15/28/15
f 31/3/31 30/6/30 15/28/15
f 31/3/31 15/28/15 14/26/14
f 32/4/32 31/3/31 14/26/14
f 32/4/32 14/26/14 13/25/13
f 33/24/33 32/4/32 13/25/13
f 33/24/33 13/25/13 24/37/24
f 34/22/34 33/24/33 24/37/24
f 34/22/34 24/37/24 23/36/23
f 35/20/35 34/22/34 23/36/23
f 35/20/35 23/36/23 22/35/22
f 36/18/36 35/20/35 22/35/22
f 36/18/36 22/35/22 21/34/21
f 37/16/37 36/18/36 21/34/21
f 37/16/37 21/34/21 20/33/20
f 26/14/26 37/16/37 20/33/20
f 26/14/26 20/33/20 19/32/19
# 60 faces, 37 coords texture

# End of File
